# MagicaVoxel @ Ephtracy

# group
o Axe-2

# material
mtllib Fantasy Weapon - Source-25-Axe-2.mtl
usemtl palette

# normals
vn -1 0 0
vn 1 0 0
vn 0 0 1
vn 0 0 -1
vn 0 -1 0
vn 0 1 0

# texcoords
vt 0.185547 0.5
vt 0.408203 0.5
vt 0.529297 0.5
vt 0.623047 0.5
vt 0.642578 0.5
vt 0.900391 0.5
vt 0.904297 0.5

# verts
v -0.075 0.025 0.35
v -0.075 0.025 0.15
v -0.075 0.175 0.35
v -0.075 0.175 0.15
v -0.025 -0.175 0.45
v -0.025 -0.175 0
v -0.025 -0.125 0.4
v -0.025 -0.125 0.05
v -0.025 -0.075 0.45
v -0.025 -0.075 0.4
v -0.025 -0.075 0.1
v -0.025 -0.075 0.05
v -0.025 -0.075 0
v -0.025 0.025 0.4
v -0.025 0.025 0.35
v -0.025 0.025 0.15
v -0.025 0.025 0.1
v -0.025 0.075 0.4
v -0.025 0.075 0.35
v -0.025 0.075 0.15
v -0.025 0.075 0.1
v -0.025 0.075 0.05
v -0.025 0.075 0
v -0.025 0.075 -0.05
v -0.025 0.075 -0.1
v -0.025 0.075 -0.35
v -0.025 0.075 -0.4
v -0.025 0.075 -0.45
v -0.025 0.125 0.4
v -0.025 0.125 0.35
v -0.025 0.125 0.15
v -0.025 0.125 0.1
v -0.025 0.125 0.05
v -0.025 0.125 0
v -0.025 0.125 -0.05
v -0.025 0.125 -0.1
v -0.025 0.125 -0.35
v -0.025 0.125 -0.4
v -0.025 0.125 -0.45
v 0.025 -0.175 0.45
v 0.025 -0.175 0
v 0.025 -0.125 0.4
v 0.025 -0.125 0.05
v 0.025 -0.075 0.45
v 0.025 -0.075 0.4
v 0.025 -0.075 0.1
v 0.025 -0.075 0.05
v 0.025 -0.075 0
v 0.025 0.025 0.4
v 0.025 0.025 0.35
v 0.025 0.025 0.15
v 0.025 0.025 0.1
v 0.025 0.075 0.4
v 0.025 0.075 0.35
v 0.025 0.075 0.15
v 0.025 0.075 0.1
v 0.025 0.075 0.05
v 0.025 0.075 0
v 0.025 0.075 -0.05
v 0.025 0.075 -0.1
v 0.025 0.075 -0.35
v 0.025 0.075 -0.4
v 0.025 0.075 -0.45
v 0.025 0.125 0.4
v 0.025 0.125 0.35
v 0.025 0.125 0.15
v 0.025 0.125 0.1
v 0.025 0.125 0.05
v 0.025 0.125 0
v 0.025 0.125 -0.05
v 0.025 0.125 -0.1
v 0.025 0.125 -0.35
v 0.025 0.125 -0.4
v 0.025 0.125 -0.45
v 0.075 0.025 0.35
v 0.075 0.025 0.15
v 0.075 0.175 0.35
v 0.075 0.175 0.15
v -0.025 -0.175 0.45
v -0.025 -0.075 0.45
v 0.025 -0.175 0.45
v 0.025 -0.075 0.45
v -0.025 -0.075 0.4
v -0.025 0.025 0.4
v -0.025 0.075 0.4
v -0.025 0.125 0.4
v 0.025 -0.075 0.4
v 0.025 0.025 0.4
v 0.025 0.075 0.4
v 0.025 0.125 0.4
v -0.075 0.025 0.35
v -0.075 0.175 0.35
v -0.025 0.025 0.35
v -0.025 0.075 0.35
v -0.025 0.125 0.35
v 0.025 0.025 0.35
v 0.025 0.075 0.35
v 0.025 0.125 0.35
v 0.075 0.025 0.35
v 0.075 0.175 0.35
v -0.075 0.025 0.15
v -0.075 0.175 0.15
v -0.025 0.025 0.15
v -0.025 0.075 0.15
v -0.025 0.125 0.15
v 0.025 0.025 0.15
v 0.025 0.075 0.15
v 0.025 0.125 0.15
v 0.075 0.025 0.15
v 0.075 0.175 0.15
v -0.025 -0.075 0.1
v -0.025 0.025 0.1
v 0.025 -0.075 0.1
v 0.025 0.025 0.1
v -0.025 -0.175 0
v -0.025 -0.075 0
v 0.025 -0.175 0
v 0.025 -0.075 0
v -0.025 0.075 -0.45
v -0.025 0.125 -0.45
v 0.025 0.075 -0.45
v 0.025 0.125 -0.45
v -0.025 -0.175 0.45
v 0.025 -0.175 0.45
v -0.025 -0.175 0
v 0.025 -0.175 0
v -0.075 0.025 0.35
v -0.025 0.025 0.35
v 0.025 0.025 0.35
v 0.075 0.025 0.35
v -0.075 0.025 0.15
v -0.025 0.025 0.15
v 0.025 0.025 0.15
v 0.075 0.025 0.15
v -0.025 0.075 0.4
v 0.025 0.075 0.4
v -0.025 0.075 0.35
v 0.025 0.075 0.35
v -0.025 0.075 0.15
v 0.025 0.075 0.15
v -0.025 0.075 0.1
v 0.025 0.075 0.1
v -0.025 0.075 0.05
v 0.025 0.075 0.05
v -0.025 0.075 0
v 0.025 0.075 0
v -0.025 0.075 -0.05
v 0.025 0.075 -0.05
v -0.025 0.075 -0.1
v 0.025 0.075 -0.1
v -0.025 0.075 -0.35
v 0.025 0.075 -0.35
v -0.025 0.075 -0.4
v 0.025 0.075 -0.4
v -0.025 0.075 -0.45
v 0.025 0.075 -0.45
v -0.025 -0.075 0.45
v 0.025 -0.075 0.45
v -0.025 -0.075 0.4
v 0.025 -0.075 0.4
v -0.025 -0.075 0.1
v 0.025 -0.075 0.1
v -0.025 -0.075 0.05
v 0.025 -0.075 0.05
v -0.025 -0.075 0
v 0.025 -0.075 0
v -0.025 0.025 0.4
v 0.025 0.025 0.4
v -0.025 0.025 0.35
v 0.025 0.025 0.35
v -0.025 0.025 0.15
v 0.025 0.025 0.15
v -0.025 0.025 0.1
v 0.025 0.025 0.1
v -0.025 0.125 0.4
v 0.025 0.125 0.4
v -0.025 0.125 0.35
v 0.025 0.125 0.35
v -0.025 0.125 0.15
v 0.025 0.125 0.15
v -0.025 0.125 0.1
v 0.025 0.125 0.1
v -0.025 0.125 0.05
v 0.025 0.125 0.05
v -0.025 0.125 0
v 0.025 0.125 0
v -0.025 0.125 -0.05
v 0.025 0.125 -0.05
v -0.025 0.125 -0.1
v 0.025 0.125 -0.1
v -0.025 0.125 -0.35
v 0.025 0.125 -0.35
v -0.025 0.125 -0.4
v 0.025 0.125 -0.4
v -0.025 0.125 -0.45
v 0.025 0.125 -0.45
v -0.075 0.175 0.35
v 0.075 0.175 0.35
v -0.075 0.175 0.15
v 0.075 0.175 0.15

# faces
f 3/4/1 2/4/1 1/4/1
f 4/4/1 2/4/1 3/4/1
f 7/2/1 6/2/1 5/2/1
f 8/2/1 6/2/1 7/2/1
f 9/2/1 7/2/1 5/2/1
f 10/5/1 8/5/1 7/5/1
f 10/2/1 7/2/1 9/2/1
f 11/5/1 8/5/1 10/5/1
f 12/2/1 6/2/1 8/2/1
f 12/5/1 8/5/1 11/5/1
f 13/2/1 6/2/1 12/2/1
f 14/5/1 11/5/1 10/5/1
f 15/5/1 11/5/1 14/5/1
f 16/5/1 11/5/1 15/5/1
f 17/5/1 11/5/1 16/5/1
f 29/6/1 19/6/1 18/6/1
f 30/6/1 19/6/1 29/6/1
f 31/3/1 21/3/1 20/3/1
f 32/4/1 22/4/1 21/4/1
f 32/3/1 21/3/1 31/3/1
f 33/7/1 23/7/1 22/7/1
f 33/4/1 22/4/1 32/4/1
f 34/6/1 24/6/1 23/6/1
f 34/7/1 23/7/1 33/7/1
f 35/7/1 25/7/1 24/7/1
f 35/6/1 24/6/1 34/6/1
f 36/1/1 26/1/1 25/1/1
f 36/7/1 25/7/1 35/7/1
f 37/7/1 27/7/1 26/7/1
f 37/1/1 26/1/1 36/1/1
f 38/6/1 28/6/1 27/6/1
f 38/7/1 27/7/1 37/7/1
f 39/6/1 28/6/1 38/6/1
f 40/2/2 41/2/2 42/2/2
f 42/2/2 41/2/2 43/2/2
f 40/2/2 42/2/2 44/2/2
f 42/5/2 43/5/2 45/5/2
f 44/2/2 42/2/2 45/2/2
f 45/5/2 43/5/2 46/5/2
f 43/2/2 41/2/2 47/2/2
f 46/5/2 43/5/2 47/5/2
f 47/2/2 41/2/2 48/2/2
f 45/5/2 46/5/2 49/5/2
f 49/5/2 46/5/2 50/5/2
f 50/5/2 46/5/2 51/5/2
f 51/5/2 46/5/2 52/5/2
f 53/6/2 54/6/2 64/6/2
f 64/6/2 54/6/2 65/6/2
f 55/3/2 56/3/2 66/3/2
f 56/4/2 57/4/2 67/4/2
f 66/3/2 56/3/2 67/3/2
f 57/7/2 58/7/2 68/7/2
f 67/4/2 57/4/2 68/4/2
f 58/6/2 59/6/2 69/6/2
f 68/7/2 58/7/2 69/7/2
f 59/7/2 60/7/2 70/7/2
f 69/6/2 59/6/2 70/6/2
f 60/1/2 61/1/2 71/1/2
f 70/7/2 60/7/2 71/7/2
f 61/7/2 62/7/2 72/7/2
f 71/1/2 61/1/2 72/1/2
f 62/6/2 63/6/2 73/6/2
f 72/7/2 62/7/2 73/7/2
f 73/6/2 63/6/2 74/6/2
f 75/4/2 76/4/2 77/4/2
f 77/4/2 76/4/2 78/4/2
f 81/2/3 80/2/3 79/2/3
f 82/2/3 80/2/3 81/2/3
f 87/5/3 84/5/3 83/5/3
f 88/5/3 84/5/3 87/5/3
f 89/6/3 86/6/3 85/6/3
f 90/6/3 86/6/3 89/6/3
f 93/4/3 92/4/3 91/4/3
f 94/4/3 92/4/3 93/4/3
f 95/4/3 92/4/3 94/4/3
f 96/4/3 94/4/3 93/4/3
f 97/4/3 94/4/3 96/4/3
f 98/4/3 92/4/3 95/4/3
f 99/4/3 97/4/3 96/4/3
f 99/4/3 98/4/3 97/4/3
f 100/4/3 92/4/3 98/4/3
f 100/4/3 98/4/3 99/4/3
f 101/4/4 102/4/4 103/4/4
f 103/4/4 102/4/4 104/4/4
f 104/4/4 102/4/4 105/4/4
f 103/4/4 104/4/4 106/4/4
f 106/4/4 104/4/4 107/4/4
f 105/4/4 102/4/4 108/4/4
f 106/4/4 107/4/4 109/4/4
f 107/4/4 108/4/4 109/4/4
f 108/4/4 102/4/4 110/4/4
f 109/4/4 108/4/4 110/4/4
f 111/5/4 112/5/4 113/5/4
f 113/5/4 112/5/4 114/5/4
f 115/2/4 116/2/4 117/2/4
f 117/2/4 116/2/4 118/2/4
f 119/6/4 120/6/4 121/6/4
f 121/6/4 120/6/4 122/6/4
f 125/2/5 124/2/5 123/2/5
f 126/2/5 124/2/5 125/2/5
f 131/4/5 128/4/5 127/4/5
f 132/4/5 128/4/5 131/4/5
f 133/4/5 130/4/5 129/4/5
f 134/4/5 130/4/5 133/4/5
f 137/6/5 136/6/5 135/6/5
f 138/6/5 136/6/5 137/6/5
f 141/3/5 140/3/5 139/3/5
f 142/3/5 140/3/5 141/3/5
f 143/4/5 142/4/5 141/4/5
f 144/4/5 142/4/5 143/4/5
f 145/7/5 144/7/5 143/7/5
f 146/7/5 144/7/5 145/7/5
f 147/6/5 146/6/5 145/6/5
f 148/6/5 146/6/5 147/6/5
f 149/7/5 148/7/5 147/7/5
f 150/7/5 148/7/5 149/7/5
f 151/1/5 150/1/5 149/1/5
f 152/1/5 150/1/5 151/1/5
f 153/7/5 152/7/5 151/7/5
f 154/7/5 152/7/5 153/7/5
f 155/6/5 154/6/5 153/6/5
f 156/6/5 154/6/5 155/6/5
f 157/2/6 158/2/6 159/2/6
f 159/2/6 158/2/6 160/2/6
f 161/5/6 162/5/6 163/5/6
f 163/5/6 162/5/6 164/5/6
f 163/2/6 164/2/6 165/2/6
f 165/2/6 164/2/6 166/2/6
f 167/5/6 168/5/6 169/5/6
f 169/5/6 168/5/6 170/5/6
f 171/5/6 172/5/6 173/5/6
f 173/5/6 172/5/6 174/5/6
f 175/6/6 176/6/6 177/6/6
f 177/6/6 176/6/6 178/6/6
f 179/3/6 180/3/6 181/3/6
f 181/3/6 180/3/6 182/3/6
f 181/4/6 182/4/6 183/4/6
f 183/4/6 182/4/6 184/4/6
f 183/7/6 184/7/6 185/7/6
f 185/7/6 184/7/6 186/7/6
f 185/6/6 186/6/6 187/6/6
f 187/6/6 186/6/6 188/6/6
f 187/7/6 188/7/6 189/7/6
f 189/7/6 188/7/6 190/7/6
f 189/1/6 190/1/6 191/1/6
f 191/1/6 190/1/6 192/1/6
f 191/7/6 192/7/6 193/7/6
f 193/7/6 192/7/6 194/7/6
f 193/6/6 194/6/6 195/6/6
f 195/6/6 194/6/6 196/6/6
f 197/4/6 198/4/6 199/4/6
f 199/4/6 198/4/6 200/4/6
