# MagicaVoxel @ Ephtracy

# group
o Sword-3

# material
mtllib Fantasy Weapon - Source-38-Sword-3.mtl
usemtl palette

# normals
vn -1 0 0
vn 1 0 0
vn 0 0 1
vn 0 0 -1
vn 0 -1 0
vn 0 1 0

# texcoords
vt 0.126953 0.5
vt 0.275391 0.5
vt 0.279297 0.5
vt 0.310547 0.5
vt 0.341797 0.5
vt 0.373047 0.5
vt 0.396484 0.5
vt 0.400391 0.5
vt 0.587891 0.5

# verts
v -0.075 -0.075 -0.375
v -0.075 -0.075 -0.425
v -0.075 -0.025 -0.575
v -0.075 -0.025 -0.625
v -0.075 0.025 -0.575
v -0.075 0.025 -0.625
v -0.075 0.075 -0.375
v -0.075 0.075 -0.425
v -0.025 -0.275 -0.425
v -0.025 -0.275 -0.475
v -0.025 -0.225 -0.375
v -0.025 -0.225 -0.425
v -0.025 -0.175 0.075
v -0.025 -0.175 0.025
v -0.025 -0.175 -0.075
v -0.025 -0.175 -0.125
v -0.025 -0.175 -0.225
v -0.025 -0.175 -0.275
v -0.025 -0.175 -0.425
v -0.025 -0.175 -0.475
v -0.025 -0.125 0.075
v -0.025 -0.125 0.025
v -0.025 -0.125 -0.025
v -0.025 -0.125 -0.075
v -0.025 -0.125 -0.125
v -0.025 -0.125 -0.175
v -0.025 -0.125 -0.225
v -0.025 -0.125 -0.275
v -0.025 -0.125 -0.325
v -0.025 -0.125 -0.375
v -0.025 -0.125 -0.425
v -0.025 -0.075 0.575
v -0.025 -0.075 0.525
v -0.025 -0.075 0.025
v -0.025 -0.075 -0.025
v -0.025 -0.075 -0.125
v -0.025 -0.075 -0.175
v -0.025 -0.075 -0.275
v -0.025 -0.075 -0.325
v -0.025 -0.075 -0.375
v -0.025 -0.075 -0.425
v -0.025 -0.075 -0.575
v -0.025 -0.075 -0.625
v -0.025 -0.025 0.625
v -0.025 -0.025 0.575
v -0.025 -0.025 0.525
v -0.025 -0.025 0.075
v -0.025 -0.025 0.025
v -0.025 -0.025 -0.125
v -0.025 -0.025 -0.175
v -0.025 -0.025 -0.325
v -0.025 -0.025 -0.375
v -0.025 -0.025 -0.425
v -0.025 -0.025 -0.475
v -0.025 -0.025 -0.525
v -0.025 -0.025 -0.575
v -0.025 -0.025 -0.625
v -0.025 0.025 0.625
v -0.025 0.025 0.575
v -0.025 0.025 0.075
v -0.025 0.025 0.025
v -0.025 0.025 -0.125
v -0.025 0.025 -0.175
v -0.025 0.025 -0.275
v -0.025 0.025 -0.375
v -0.025 0.025 -0.425
v -0.025 0.025 -0.475
v -0.025 0.025 -0.525
v -0.025 0.025 -0.575
v -0.025 0.025 -0.625
v -0.025 0.075 0.575
v -0.025 0.075 0.025
v -0.025 0.075 -0.025
v -0.025 0.075 -0.125
v -0.025 0.075 -0.175
v -0.025 0.075 -0.275
v -0.025 0.075 -0.325
v -0.025 0.075 -0.375
v -0.025 0.075 -0.425
v -0.025 0.075 -0.575
v -0.025 0.075 -0.625
v -0.025 0.125 0.075
v -0.025 0.125 0.025
v -0.025 0.125 -0.025
v -0.025 0.125 -0.075
v -0.025 0.125 -0.125
v -0.025 0.125 -0.175
v -0.025 0.125 -0.225
v -0.025 0.125 -0.275
v -0.025 0.125 -0.325
v -0.025 0.125 -0.375
v -0.025 0.125 -0.425
v -0.025 0.175 0.075
v -0.025 0.175 0.025
v -0.025 0.175 -0.075
v -0.025 0.175 -0.125
v -0.025 0.175 -0.225
v -0.025 0.175 -0.275
v -0.025 0.175 -0.425
v -0.025 0.175 -0.475
v -0.025 0.225 -0.375
v -0.025 0.225 -0.425
v -0.025 0.275 -0.425
v -0.025 0.275 -0.475
v 0.025 -0.275 -0.425
v 0.025 -0.275 -0.475
v 0.025 -0.225 -0.375
v 0.025 -0.225 -0.425
v 0.025 -0.175 0.075
v 0.025 -0.175 0.025
v 0.025 -0.175 -0.075
v 0.025 -0.175 -0.125
v 0.025 -0.175 -0.225
v 0.025 -0.175 -0.275
v 0.025 -0.175 -0.425
v 0.025 -0.175 -0.475
v 0.025 -0.125 0.075
v 0.025 -0.125 0.025
v 0.025 -0.125 -0.025
v 0.025 -0.125 -0.075
v 0.025 -0.125 -0.125
v 0.025 -0.125 -0.175
v 0.025 -0.125 -0.225
v 0.025 -0.125 -0.275
v 0.025 -0.125 -0.325
v 0.025 -0.125 -0.375
v 0.025 -0.125 -0.425
v 0.025 -0.075 0.575
v 0.025 -0.075 0.525
v 0.025 -0.075 0.025
v 0.025 -0.075 -0.025
v 0.025 -0.075 -0.125
v 0.025 -0.075 -0.175
v 0.025 -0.075 -0.275
v 0.025 -0.075 -0.325
v 0.025 -0.075 -0.375
v 0.025 -0.075 -0.425
v 0.025 -0.075 -0.575
v 0.025 -0.075 -0.625
v 0.025 -0.025 0.625
v 0.025 -0.025 0.575
v 0.025 -0.025 0.525
v 0.025 -0.025 0.075
v 0.025 -0.025 0.025
v 0.025 -0.025 -0.125
v 0.025 -0.025 -0.175
v 0.025 -0.025 -0.325
v 0.025 -0.025 -0.375
v 0.025 -0.025 -0.425
v 0.025 -0.025 -0.475
v 0.025 -0.025 -0.525
v 0.025 -0.025 -0.575
v 0.025 -0.025 -0.625
v 0.025 0.025 0.625
v 0.025 0.025 0.575
v 0.025 0.025 0.075
v 0.025 0.025 0.025
v 0.025 0.025 -0.125
v 0.025 0.025 -0.175
v 0.025 0.025 -0.275
v 0.025 0.025 -0.375
v 0.025 0.025 -0.425
v 0.025 0.025 -0.475
v 0.025 0.025 -0.525
v 0.025 0.025 -0.575
v 0.025 0.025 -0.625
v 0.025 0.075 0.575
v 0.025 0.075 0.025
v 0.025 0.075 -0.025
v 0.025 0.075 -0.125
v 0.025 0.075 -0.175
v 0.025 0.075 -0.275
v 0.025 0.075 -0.325
v 0.025 0.075 -0.375
v 0.025 0.075 -0.425
v 0.025 0.075 -0.575
v 0.025 0.075 -0.625
v 0.025 0.125 0.075
v 0.025 0.125 0.025
v 0.025 0.125 -0.025
v 0.025 0.125 -0.075
v 0.025 0.125 -0.125
v 0.025 0.125 -0.175
v 0.025 0.125 -0.225
v 0.025 0.125 -0.275
v 0.025 0.125 -0.325
v 0.025 0.125 -0.375
v 0.025 0.125 -0.425
v 0.025 0.175 0.075
v 0.025 0.175 0.025
v 0.025 0.175 -0.075
v 0.025 0.175 -0.125
v 0.025 0.175 -0.225
v 0.025 0.175 -0.275
v 0.025 0.175 -0.425
v 0.025 0.175 -0.475
v 0.025 0.225 -0.375
v 0.025 0.225 -0.425
v 0.025 0.275 -0.425
v 0.025 0.275 -0.475
v 0.075 -0.075 -0.375
v 0.075 -0.075 -0.425
v 0.075 -0.025 -0.575
v 0.075 -0.025 -0.625
v 0.075 0.025 -0.575
v 0.075 0.025 -0.625
v 0.075 0.075 -0.375
v 0.075 0.075 -0.425
v -0.025 -0.025 0.625
v -0.025 0.025 0.625
v 0.025 -0.025 0.625
v 0.025 0.025 0.625
v -0.025 -0.075 0.575
v -0.025 -0.025 0.575
v -0.025 0.025 0.575
v -0.025 0.075 0.575
v 0.025 -0.075 0.575
v 0.025 -0.025 0.575
v 0.025 0.025 0.575
v 0.025 0.075 0.575
v -0.025 -0.175 0.075
v -0.025 -0.125 0.075
v -0.025 0.125 0.075
v -0.025 0.175 0.075
v 0.025 -0.175 0.075
v 0.025 -0.125 0.075
v 0.025 0.125 0.075
v 0.025 0.175 0.075
v -0.025 -0.125 0.025
v -0.025 -0.075 0.025
v -0.025 0.075 0.025
v -0.025 0.125 0.025
v 0.025 -0.125 0.025
v 0.025 -0.075 0.025
v 0.025 0.075 0.025
v 0.025 0.125 0.025
v -0.025 -0.175 -0.075
v -0.025 -0.125 -0.075
v -0.025 0.125 -0.075
v -0.025 0.175 -0.075
v 0.025 -0.175 -0.075
v 0.025 -0.125 -0.075
v 0.025 0.125 -0.075
v 0.025 0.175 -0.075
v -0.025 -0.125 -0.125
v -0.025 -0.075 -0.125
v -0.025 0.075 -0.125
v -0.025 0.125 -0.125
v 0.025 -0.125 -0.125
v 0.025 -0.075 -0.125
v 0.025 0.075 -0.125
v 0.025 0.125 -0.125
v -0.025 -0.175 -0.225
v -0.025 -0.125 -0.225
v -0.025 0.125 -0.225
v -0.025 0.175 -0.225
v 0.025 -0.175 -0.225
v 0.025 -0.125 -0.225
v 0.025 0.125 -0.225
v 0.025 0.175 -0.225
v -0.025 -0.125 -0.275
v -0.025 -0.075 -0.275
v -0.025 0.075 -0.275
v -0.025 0.125 -0.275
v 0.025 -0.125 -0.275
v 0.025 -0.075 -0.275
v 0.025 0.075 -0.275
v 0.025 0.125 -0.275
v -0.075 -0.075 -0.375
v -0.075 0.075 -0.375
v -0.025 -0.225 -0.375
v -0.025 -0.125 -0.375
v -0.025 -0.075 -0.375
v -0.025 -0.025 -0.375
v -0.025 0.025 -0.375
v -0.025 0.075 -0.375
v -0.025 0.125 -0.375
v -0.025 0.225 -0.375
v 0.025 -0.225 -0.375
v 0.025 -0.125 -0.375
v 0.025 -0.075 -0.375
v 0.025 -0.025 -0.375
v 0.025 0.025 -0.375
v 0.025 0.075 -0.375
v 0.025 0.125 -0.375
v 0.025 0.225 -0.375
v 0.075 -0.075 -0.375
v 0.075 0.075 -0.375
v -0.025 -0.275 -0.425
v -0.025 -0.225 -0.425
v -0.025 0.225 -0.425
v -0.025 0.275 -0.425
v 0.025 -0.275 -0.425
v 0.025 -0.225 -0.425
v 0.025 0.225 -0.425
v 0.025 0.275 -0.425
v -0.075 -0.025 -0.575
v -0.075 0.025 -0.575
v -0.025 -0.075 -0.575
v -0.025 -0.025 -0.575
v -0.025 0.025 -0.575
v -0.025 0.075 -0.575
v 0.025 -0.075 -0.575
v 0.025 -0.025 -0.575
v 0.025 0.025 -0.575
v 0.025 0.075 -0.575
v 0.075 -0.025 -0.575
v 0.075 0.025 -0.575
v -0.025 -0.175 0.025
v -0.025 -0.125 0.025
v -0.025 0.125 0.025
v -0.025 0.175 0.025
v 0.025 -0.175 0.025
v 0.025 -0.125 0.025
v 0.025 0.125 0.025
v 0.025 0.175 0.025
v -0.025 -0.125 -0.025
v -0.025 -0.075 -0.025
v -0.025 0.075 -0.025
v -0.025 0.125 -0.025
v 0.025 -0.125 -0.025
v 0.025 -0.075 -0.025
v 0.025 0.075 -0.025
v 0.025 0.125 -0.025
v -0.025 -0.175 -0.125
v -0.025 -0.125 -0.125
v -0.025 0.125 -0.125
v -0.025 0.175 -0.125
v 0.025 -0.175 -0.125
v 0.025 -0.125 -0.125
v 0.025 0.125 -0.125
v 0.025 0.175 -0.125
v -0.025 -0.125 -0.175
v -0.025 -0.075 -0.175
v -0.025 0.075 -0.175
v -0.025 0.125 -0.175
v 0.025 -0.125 -0.175
v 0.025 -0.075 -0.175
v 0.025 0.075 -0.175
v 0.025 0.125 -0.175
v -0.025 -0.175 -0.275
v -0.025 -0.125 -0.275
v -0.025 0.125 -0.275
v -0.025 0.175 -0.275
v 0.025 -0.175 -0.275
v 0.025 -0.125 -0.275
v 0.025 0.125 -0.275
v 0.025 0.175 -0.275
v -0.025 -0.125 -0.325
v -0.025 -0.075 -0.325
v -0.025 0.075 -0.325
v -0.025 0.125 -0.325
v 0.025 -0.125 -0.325
v 0.025 -0.075 -0.325
v 0.025 0.075 -0.325
v 0.025 0.125 -0.325
v -0.075 -0.075 -0.425
v -0.075 0.075 -0.425
v -0.025 -0.175 -0.425
v -0.025 -0.125 -0.425
v -0.025 -0.075 -0.425
v -0.025 -0.025 -0.425
v -0.025 0.025 -0.425
v -0.025 0.075 -0.425
v -0.025 0.125 -0.425
v -0.025 0.175 -0.425
v 0.025 -0.175 -0.425
v 0.025 -0.125 -0.425
v 0.025 -0.075 -0.425
v 0.025 -0.025 -0.425
v 0.025 0.025 -0.425
v 0.025 0.075 -0.425
v 0.025 0.125 -0.425
v 0.025 0.175 -0.425
v 0.075 -0.075 -0.425
v 0.075 0.075 -0.425
v -0.025 -0.275 -0.475
v -0.025 -0.175 -0.475
v -0.025 0.175 -0.475
v -0.025 0.275 -0.475
v 0.025 -0.275 -0.475
v 0.025 -0.175 -0.475
v 0.025 0.175 -0.475
v 0.025 0.275 -0.475
v -0.075 -0.025 -0.625
v -0.075 0.025 -0.625
v -0.025 -0.075 -0.625
v -0.025 -0.025 -0.625
v -0.025 0.025 -0.625
v -0.025 0.075 -0.625
v 0.025 -0.075 -0.625
v 0.025 -0.025 -0.625
v 0.025 0.025 -0.625
v 0.025 0.075 -0.625
v 0.075 -0.025 -0.625
v 0.075 0.025 -0.625
v -0.025 -0.275 -0.425
v 0.025 -0.275 -0.425
v -0.025 -0.275 -0.475
v 0.025 -0.275 -0.475
v -0.025 -0.225 -0.375
v 0.025 -0.225 -0.375
v -0.025 -0.225 -0.425
v 0.025 -0.225 -0.425
v -0.025 -0.175 0.075
v 0.025 -0.175 0.075
v -0.025 -0.175 0.025
v 0.025 -0.175 0.025
v -0.025 -0.175 -0.075
v 0.025 -0.175 -0.075
v -0.025 -0.175 -0.125
v 0.025 -0.175 -0.125
v -0.025 -0.175 -0.225
v 0.025 -0.175 -0.225
v -0.025 -0.175 -0.275
v 0.025 -0.175 -0.275
v -0.025 -0.125 0.025
v 0.025 -0.125 0.025
v -0.025 -0.125 -0.025
v 0.025 -0.125 -0.025
v -0.025 -0.125 -0.125
v 0.025 -0.125 -0.125
v -0.025 -0.125 -0.175
v 0.025 -0.125 -0.175
v -0.025 -0.125 -0.275
v 0.025 -0.125 -0.275
v -0.025 -0.125 -0.325
v 0.025 -0.125 -0.325
v -0.025 -0.075 0.575
v 0.025 -0.075 0.575
v -0.025 -0.075 0.525
v 0.025 -0.075 0.525
v -0.025 -0.075 0.025
v 0.025 -0.075 0.025
v -0.025 -0.075 -0.025
v 0.025 -0.075 -0.025
v -0.025 -0.075 -0.125
v 0.025 -0.075 -0.125
v -0.025 -0.075 -0.175
v 0.025 -0.075 -0.175
v -0.025 -0.075 -0.275
v 0.025 -0.075 -0.275
v -0.025 -0.075 -0.325
v 0.025 -0.075 -0.325
v -0.075 -0.075 -0.375
v -0.025 -0.075 -0.375
v 0.025 -0.075 -0.375
v 0.075 -0.075 -0.375
v -0.075 -0.075 -0.425
v -0.025 -0.075 -0.425
v 0.025 -0.075 -0.425
v 0.075 -0.075 -0.425
v -0.025 -0.075 -0.575
v 0.025 -0.075 -0.575
v -0.025 -0.075 -0.625
v 0.025 -0.075 -0.625
v -0.025 -0.025 0.625
v 0.025 -0.025 0.625
v -0.025 -0.025 0.575
v 0.025 -0.025 0.575
v -0.025 -0.025 -0.425
v 0.025 -0.025 -0.425
v -0.025 -0.025 -0.475
v 0.025 -0.025 -0.475
v -0.025 -0.025 -0.525
v 0.025 -0.025 -0.525
v -0.075 -0.025 -0.575
v -0.025 -0.025 -0.575
v 0.025 -0.025 -0.575
v 0.075 -0.025 -0.575
v -0.075 -0.025 -0.625
v -0.025 -0.025 -0.625
v 0.025 -0.025 -0.625
v 0.075 -0.025 -0.625
v -0.025 0.125 0.075
v 0.025 0.125 0.075
v -0.025 0.125 0.025
v 0.025 0.125 0.025
v -0.025 0.125 -0.075
v 0.025 0.125 -0.075
v -0.025 0.125 -0.125
v 0.025 0.125 -0.125
v -0.025 0.125 -0.225
v 0.025 0.125 -0.225
v -0.025 0.125 -0.275
v 0.025 0.125 -0.275
v -0.025 0.175 -0.425
v 0.025 0.175 -0.425
v -0.025 0.175 -0.475
v 0.025 0.175 -0.475
v -0.025 -0.175 -0.425
v 0.025 -0.175 -0.425
v -0.025 -0.175 -0.475
v 0.025 -0.175 -0.475
v -0.025 -0.125 0.075
v 0.025 -0.125 0.075
v -0.025 -0.125 0.025
v 0.025 -0.125 0.025
v -0.025 -0.125 -0.075
v 0.025 -0.125 -0.075
v -0.025 -0.125 -0.125
v 0.025 -0.125 -0.125
v -0.025 -0.125 -0.225
v 0.025 -0.125 -0.225
v -0.025 -0.125 -0.275
v 0.025 -0.125 -0.275
v -0.025 0.025 0.625
v 0.025 0.025 0.625
v -0.025 0.025 0.575
v 0.025 0.025 0.575
v -0.025 0.025 -0.425
v 0.025 0.025 -0.425
v -0.025 0.025 -0.475
v 0.025 0.025 -0.475
v -0.025 0.025 -0.525
v 0.025 0.025 -0.525
v -0.075 0.025 -0.575
v -0.025 0.025 -0.575
v 0.025 0.025 -0.575
v 0.075 0.025 -0.575
v -0.075 0.025 -0.625
v -0.025 0.025 -0.625
v 0.025 0.025 -0.625
v 0.075 0.025 -0.625
v -0.025 0.075 0.575
v 0.025 0.075 0.575
v -0.025 0.075 0.025
v 0.025 0.075 0.025
v -0.025 0.075 -0.025
v 0.025 0.075 -0.025
v -0.025 0.075 -0.125
v 0.025 0.075 -0.125
v -0.025 0.075 -0.175
v 0.025 0.075 -0.175
v -0.025 0.075 -0.275
v 0.025 0.075 -0.275
v -0.025 0.075 -0.325
v 0.025 0.075 -0.325
v -0.075 0.075 -0.375
v -0.025 0.075 -0.375
v 0.025 0.075 -0.375
v 0.075 0.075 -0.375
v -0.075 0.075 -0.425
v -0.025 0.075 -0.425
v 0.025 0.075 -0.425
v 0.075 0.075 -0.425
v -0.025 0.075 -0.575
v 0.025 0.075 -0.575
v -0.025 0.075 -0.625
v 0.025 0.075 -0.625
v -0.025 0.125 0.025
v 0.025 0.125 0.025
v -0.025 0.125 -0.025
v 0.025 0.125 -0.025
v -0.025 0.125 -0.125
v 0.025 0.125 -0.125
v -0.025 0.125 -0.175
v 0.025 0.125 -0.175
v -0.025 0.125 -0.275
v 0.025 0.125 -0.275
v -0.025 0.125 -0.325
v 0.025 0.125 -0.325
v -0.025 0.175 0.075
v 0.025 0.175 0.075
v -0.025 0.175 0.025
v 0.025 0.175 0.025
v -0.025 0.175 -0.075
v 0.025 0.175 -0.075
v -0.025 0.175 -0.125
v 0.025 0.175 -0.125
v -0.025 0.175 -0.225
v 0.025 0.175 -0.225
v -0.025 0.175 -0.275
v 0.025 0.175 -0.275
v -0.025 0.225 -0.375
v 0.025 0.225 -0.375
v -0.025 0.225 -0.425
v 0.025 0.225 -0.425
v -0.025 0.275 -0.425
v 0.025 0.275 -0.425
v -0.025 0.275 -0.475
v 0.025 0.275 -0.475

# faces
f 5/4/1 4/4/1 3/4/1
f 6/4/1 4/4/1 5/4/1
f 7/4/1 2/4/1 1/4/1
f 8/4/1 2/4/1 7/4/1
f 12/3/1 10/3/1 9/3/1
f 19/3/1 10/3/1 12/3/1
f 19/3/1 12/3/1 11/3/1
f 20/3/1 10/3/1 19/3/1
f 21/3/1 14/3/1 13/3/1
f 22/3/1 14/3/1 21/3/1
f 24/3/1 16/3/1 15/3/1
f 25/3/1 16/3/1 24/3/1
f 27/3/1 18/3/1 17/3/1
f 28/3/1 18/3/1 27/3/1
f 30/3/1 19/3/1 11/3/1
f 31/3/1 19/3/1 30/3/1
f 34/3/1 23/3/1 22/3/1
f 35/3/1 23/3/1 34/3/1
f 36/3/1 26/3/1 25/3/1
f 37/3/1 26/3/1 36/3/1
f 38/3/1 29/3/1 28/3/1
f 39/3/1 29/3/1 38/3/1
f 40/4/1 31/4/1 30/4/1
f 41/4/1 31/4/1 40/4/1
f 45/7/1 33/7/1 32/7/1
f 46/6/1 34/6/1 33/6/1
f 46/7/1 33/7/1 45/7/1
f 47/6/1 34/6/1 46/6/1
f 48/5/1 35/5/1 34/5/1
f 48/6/1 34/6/1 47/6/1
f 48/5/1 37/5/1 36/5/1
f 48/5/1 36/5/1 35/5/1
f 49/5/1 37/5/1 48/5/1
f 50/2/1 39/2/1 38/2/1
f 50/5/1 37/5/1 49/5/1
f 50/2/1 38/2/1 37/2/1
f 51/4/1 40/4/1 39/4/1
f 51/2/1 39/2/1 50/2/1
f 52/4/1 40/4/1 51/4/1
f 56/4/1 43/4/1 42/4/1
f 57/4/1 43/4/1 56/4/1
f 58/7/1 45/7/1 44/7/1
f 59/6/1 47/6/1 46/6/1
f 59/7/1 45/7/1 58/7/1
f 59/6/1 46/6/1 45/6/1
f 60/5/1 48/5/1 47/5/1
f 60/6/1 47/6/1 59/6/1
f 61/1/1 49/1/1 48/1/1
f 61/5/1 48/5/1 60/5/1
f 62/2/1 50/2/1 49/2/1
f 62/1/1 49/1/1 61/1/1
f 62/2/1 51/2/1 50/2/1
f 62/2/1 52/2/1 51/2/1
f 63/2/1 52/2/1 62/2/1
f 64/2/1 52/2/1 63/2/1
f 65/2/1 52/2/1 64/2/1
f 66/8/1 54/8/1 53/8/1
f 67/9/1 55/9/1 54/9/1
f 67/8/1 54/8/1 66/8/1
f 68/8/1 56/8/1 55/8/1
f 68/9/1 55/9/1 67/9/1
f 69/8/1 56/8/1 68/8/1
f 71/6/1 61/6/1 60/6/1
f 71/6/1 60/6/1 59/6/1
f 72/5/1 63/5/1 62/5/1
f 72/6/1 61/6/1 71/6/1
f 72/5/1 62/5/1 61/5/1
f 73/5/1 63/5/1 72/5/1
f 74/5/1 63/5/1 73/5/1
f 75/2/1 64/2/1 63/2/1
f 75/5/1 63/5/1 74/5/1
f 76/4/1 65/4/1 64/4/1
f 76/2/1 64/2/1 75/2/1
f 77/4/1 65/4/1 76/4/1
f 78/4/1 65/4/1 77/4/1
f 80/4/1 70/4/1 69/4/1
f 81/4/1 70/4/1 80/4/1
f 83/3/1 73/3/1 72/3/1
f 84/3/1 73/3/1 83/3/1
f 86/3/1 75/3/1 74/3/1
f 87/3/1 75/3/1 86/3/1
f 89/3/1 77/3/1 76/3/1
f 90/3/1 77/3/1 89/3/1
f 91/4/1 79/4/1 78/4/1
f 92/4/1 79/4/1 91/4/1
f 93/3/1 83/3/1 82/3/1
f 94/3/1 83/3/1 93/3/1
f 95/3/1 86/3/1 85/3/1
f 96/3/1 86/3/1 95/3/1
f 97/3/1 89/3/1 88/3/1
f 98/3/1 89/3/1 97/3/1
f 99/3/1 92/3/1 91/3/1
f 101/3/1 99/3/1 91/3/1
f 101/3/1 100/3/1 99/3/1
f 102/3/1 100/3/1 101/3/1
f 103/3/1 100/3/1 102/3/1
f 104/3/1 100/3/1 103/3/1
f 105/3/2 106/3/2 108/3/2
f 108/3/2 106/3/2 115/3/2
f 107/3/2 108/3/2 115/3/2
f 115/3/2 106/3/2 116/3/2
f 109/3/2 110/3/2 117/3/2
f 117/3/2 110/3/2 118/3/2
f 111/3/2 112/3/2 120/3/2
f 120/3/2 112/3/2 121/3/2
f 113/3/2 114/3/2 123/3/2
f 123/3/2 114/3/2 124/3/2
f 107/3/2 115/3/2 126/3/2
f 126/3/2 115/3/2 127/3/2
f 118/3/2 119/3/2 130/3/2
f 130/3/2 119/3/2 131/3/2
f 121/3/2 122/3/2 132/3/2
f 132/3/2 122/3/2 133/3/2
f 124/3/2 125/3/2 134/3/2
f 134/3/2 125/3/2 135/3/2
f 126/4/2 127/4/2 136/4/2
f 136/4/2 127/4/2 137/4/2
f 128/7/2 129/7/2 141/7/2
f 129/6/2 130/6/2 142/6/2
f 141/7/2 129/7/2 142/7/2
f 142/6/2 130/6/2 143/6/2
f 130/5/2 131/5/2 144/5/2
f 143/6/2 130/6/2 144/6/2
f 132/5/2 133/5/2 144/5/2
f 131/5/2 132/5/2 144/5/2
f 144/5/2 133/5/2 145/5/2
f 134/2/2 135/2/2 146/2/2
f 145/5/2 133/5/2 146/5/2
f 133/2/2 134/2/2 146/2/2
f 135/4/2 136/4/2 147/4/2
f 146/2/2 135/2/2 147/2/2
f 147/4/2 136/4/2 148/4/2
f 138/4/2 139/4/2 152/4/2
f 152/4/2 139/4/2 153/4/2
f 140/7/2 141/7/2 154/7/2
f 142/6/2 143/6/2 155/6/2
f 154/7/2 141/7/2 155/7/2
f 141/6/2 142/6/2 155/6/2
f 143/5/2 144/5/2 156/5/2
f 155/6/2 143/6/2 156/6/2
f 144/1/2 145/1/2 157/1/2
f 156/5/2 144/5/2 157/5/2
f 145/2/2 146/2/2 158/2/2
f 157/1/2 145/1/2 158/1/2
f 146/2/2 147/2/2 158/2/2
f 147/2/2 148/2/2 158/2/2
f 158/2/2 148/2/2 159/2/2
f 159/2/2 148/2/2 160/2/2
f 160/2/2 148/2/2 161/2/2
f 149/8/2 150/8/2 162/8/2
f 150/9/2 151/9/2 163/9/2
f 162/8/2 150/8/2 163/8/2
f 151/8/2 152/8/2 164/8/2
f 163/9/2 151/9/2 164/9/2
f 164/8/2 152/8/2 165/8/2
f 156/6/2 157/6/2 167/6/2
f 155/6/2 156/6/2 167/6/2
f 158/5/2 159/5/2 168/5/2
f 167/6/2 157/6/2 168/6/2
f 157/5/2 158/5/2 168/5/2
f 168/5/2 159/5/2 169/5/2
f 169/5/2 159/5/2 170/5/2
f 159/2/2 160/2/2 171/2/2
f 170/5/2 159/5/2 171/5/2
f 160/4/2 161/4/2 172/4/2
f 171/2/2 160/2/2 172/2/2
f 172/4/2 161/4/2 173/4/2
f 173/4/2 161/4/2 174/4/2
f 165/4/2 166/4/2 176/4/2
f 176/4/2 166/4/2 177/4/2
f 168/3/2 169/3/2 179/3/2
f 179/3/2 169/3/2 180/3/2
f 170/3/2 171/3/2 182/3/2
f 182/3/2 171/3/2 183/3/2
f 172/3/2 173/3/2 185/3/2
f 185/3/2 173/3/2 186/3/2
f 174/4/2 175/4/2 187/4/2
f 187/4/2 175/4/2 188/4/2
f 178/3/2 179/3/2 189/3/2
f 189/3/2 179/3/2 190/3/2
f 181/3/2 182/3/2 191/3/2
f 191/3/2 182/3/2 192/3/2
f 184/3/2 185/3/2 193/3/2
f 193/3/2 185/3/2 194/3/2
f 187/3/2 188/3/2 195/3/2
f 187/3/2 195/3/2 197/3/2
f 195/3/2 196/3/2 197/3/2
f 197/3/2 196/3/2 198/3/2
f 198/3/2 196/3/2 199/3/2
f 199/3/2 196/3/2 200/3/2
f 203/4/2 204/4/2 205/4/2
f 205/4/2 204/4/2 206/4/2
f 201/4/2 202/4/2 207/4/2
f 207/4/2 202/4/2 208/4/2
f 211/7/3 210/7/3 209/7/3
f 212/7/3 210/7/3 211/7/3
f 217/7/3 214/7/3 213/7/3
f 218/7/3 214/7/3 217/7/3
f 219/6/3 216/6/3 215/6/3
f 220/6/3 216/6/3 219/6/3
f 225/3/3 222/3/3 221/3/3
f 226/3/3 222/3/3 225/3/3
f 227/3/3 224/3/3 223/3/3
f 228/3/3 224/3/3 227/3/3
f 233/3/3 230/3/3 229/3/3
f 234/3/3 230/3/3 233/3/3
f 235/3/3 232/3/3 231/3/3
f 236/3/3 232/3/3 235/3/3
f 241/3/3 238/3/3 237/3/3
f 242/3/3 238/3/3 241/3/3
f 243/3/3 240/3/3 239/3/3
f 244/3/3 240/3/3 243/3/3
f 249/3/3 246/3/3 245/3/3
f 250/3/3 246/3/3 249/3/3
f 251/3/3 248/3/3 247/3/3
f 252/3/3 248/3/3 251/3/3
f 257/3/3 254/3/3 253/3/3
f 258/3/3 254/3/3 257/3/3
f 259/3/3 256/3/3 255/3/3
f 260/3/3 256/3/3 259/3/3
f 265/3/3 262/3/3 261/3/3
f 266/3/3 262/3/3 265/3/3
f 267/3/3 264/3/3 263/3/3
f 268/3/3 264/3/3 267/3/3
f 273/4/3 270/4/3 269/4/3
f 274/4/3 270/4/3 273/4/3
f 275/4/3 270/4/3 274/4/3
f 276/4/3 270/4/3 275/4/3
f 279/3/3 272/3/3 271/3/3
f 280/4/3 273/4/3 272/4/3
f 280/3/3 272/3/3 279/3/3
f 281/4/3 273/4/3 280/4/3
f 284/4/3 277/4/3 276/4/3
f 285/3/3 278/3/3 277/3/3
f 285/4/3 277/4/3 284/4/3
f 286/3/3 278/3/3 285/3/3
f 287/4/3 284/4/3 283/4/3
f 287/4/3 283/4/3 282/4/3
f 287/4/3 282/4/3 281/4/3
f 288/4/3 284/4/3 287/4/3
f 293/3/3 290/3/3 289/3/3
f 294/3/3 290/3/3 293/3/3
f 295/3/3 292/3/3 291/3/3
f 296/3/3 292/3/3 295/3/3
f 300/4/3 298/4/3 297/4/3
f 301/4/3 298/4/3 300/4/3
f 303/4/3 300/4/3 299/4/3
f 304/4/3 300/4/3 303/4/3
f 305/4/3 302/4/3 301/4/3
f 306/4/3 302/4/3 305/4/3
f 307/4/3 305/4/3 304/4/3
f 308/4/3 305/4/3 307/4/3
f 309/3/4 310/3/4 313/3/4
f 313/3/4 310/3/4 314/3/4
f 311/3/4 312/3/4 315/3/4
f 315/3/4 312/3/4 316/3/4
f 317/3/4 318/3/4 321/3/4
f 321/3/4 318/3/4 322/3/4
f 319/3/4 320/3/4 323/3/4
f 323/3/4 320/3/4 324/3/4
f 325/3/4 326/3/4 329/3/4
f 329/3/4 326/3/4 330/3/4
f 327/3/4 328/3/4 331/3/4
f 331/3/4 328/3/4 332/3/4
f 333/3/4 334/3/4 337/3/4
f 337/3/4 334/3/4 338/3/4
f 335/3/4 336/3/4 339/3/4
f 339/3/4 336/3/4 340/3/4
f 341/3/4 342/3/4 345/3/4
f 345/3/4 342/3/4 346/3/4
f 343/3/4 344/3/4 347/3/4
f 347/3/4 344/3/4 348/3/4
f 349/3/4 350/3/4 353/3/4
f 353/3/4 350/3/4 354/3/4
f 351/3/4 352/3/4 355/3/4
f 355/3/4 352/3/4 356/3/4
f 357/4/4 358/4/4 361/4/4
f 361/4/4 358/4/4 362/4/4
f 362/4/4 358/4/4 363/4/4
f 363/4/4 358/4/4 364/4/4
f 359/3/4 360/3/4 367/3/4
f 360/4/4 361/4/4 368/4/4
f 367/3/4 360/3/4 368/3/4
f 361/2/4 362/2/4 369/2/4
f 368/4/4 361/4/4 369/4/4
f 369/2/4 362/2/4 370/2/4
f 363/2/4 364/2/4 371/2/4
f 364/4/4 365/4/4 372/4/4
f 371/2/4 364/2/4 372/2/4
f 365/3/4 366/3/4 373/3/4
f 372/4/4 365/4/4 373/4/4
f 373/3/4 366/3/4 374/3/4
f 371/4/4 372/4/4 375/4/4
f 370/4/4 371/4/4 375/4/4
f 369/4/4 370/4/4 375/4/4
f 375/4/4 372/4/4 376/4/4
f 377/3/4 378/3/4 381/3/4
f 381/3/4 378/3/4 382/3/4
f 379/3/4 380/3/4 383/3/4
f 383/3/4 380/3/4 384/3/4
f 385/4/4 386/4/4 388/4/4
f 388/4/4 386/4/4 389/4/4
f 387/4/4 388/4/4 391/4/4
f 388/2/4 389/2/4 392/2/4
f 391/4/4 388/4/4 392/4/4
f 389/4/4 390/4/4 393/4/4
f 392/2/4 389/2/4 393/2/4
f 393/4/4 390/4/4 394/4/4
f 392/4/4 393/4/4 395/4/4
f 395/4/4 393/4/4 396/4/4
f 399/3/5 398/3/5 397/3/5
f 400/3/5 398/3/5 399/3/5
f 403/3/5 402/3/5 401/3/5
f 404/3/5 402/3/5 403/3/5
f 407/3/5 406/3/5 405/3/5
f 408/3/5 406/3/5 407/3/5
f 411/3/5 410/3/5 409/3/5
f 412/3/5 410/3/5 411/3/5
f 415/3/5 414/3/5 413/3/5
f 416/3/5 414/3/5 415/3/5
f 419/3/5 418/3/5 417/3/5
f 420/3/5 418/3/5 419/3/5
f 423/3/5 422/3/5 421/3/5
f 424/3/5 422/3/5 423/3/5
f 427/3/5 426/3/5 425/3/5
f 428/3/5 426/3/5 427/3/5
f 431/7/5 430/7/5 429/7/5
f 432/7/5 430/7/5 431/7/5
f 433/6/5 432/6/5 431/6/5
f 434/6/5 432/6/5 433/6/5
f 437/5/5 436/5/5 435/5/5
f 438/5/5 436/5/5 437/5/5
f 441/2/5 440/2/5 439/2/5
f 442/2/5 440/2/5 441/2/5
f 446/4/5 444/4/5 443/4/5
f 447/4/5 444/4/5 446/4/5
f 449/4/5 446/4/5 445/4/5
f 450/4/5 446/4/5 449/4/5
f 451/4/5 448/4/5 447/4/5
f 452/4/5 448/4/5 451/4/5
f 455/4/5 454/4/5 453/4/5
f 456/4/5 454/4/5 455/4/5
f 459/7/5 458/7/5 457/7/5
f 460/7/5 458/7/5 459/7/5
f 463/8/5 462/8/5 461/8/5
f 464/8/5 462/8/5 463/8/5
f 465/9/5 464/9/5 463/9/5
f 466/9/5 464/9/5 465/9/5
f 468/8/5 466/8/5 465/8/5
f 469/8/5 466/8/5 468/8/5
f 471/4/5 468/4/5 467/4/5
f 472/4/5 468/4/5 471/4/5
f 473/4/5 470/4/5 469/4/5
f 474/4/5 470/4/5 473/4/5
f 477/3/5 476/3/5 475/3/5
f 478/3/5 476/3/5 477/3/5
f 481/3/5 480/3/5 479/3/5
f 482/3/5 480/3/5 481/3/5
f 485/3/5 484/3/5 483/3/5
f 486/3/5 484/3/5 485/3/5
f 489/3/5 488/3/5 487/3/5
f 490/3/5 488/3/5 489/3/5
f 491/3/6 492/3/6 493/3/6
f 493/3/6 492/3/6 494/3/6
f 495/3/6 496/3/6 497/3/6
f 497/3/6 496/3/6 498/3/6
f 499/3/6 500/3/6 501/3/6
f 501/3/6 500/3/6 502/3/6
f 503/3/6 504/3/6 505/3/6
f 505/3/6 504/3/6 506/3/6
f 507/7/6 508/7/6 509/7/6
f 509/7/6 508/7/6 510/7/6
f 511/8/6 512/8/6 513/8/6
f 513/8/6 512/8/6 514/8/6
f 513/9/6 514/9/6 515/9/6
f 515/9/6 514/9/6 516/9/6
f 515/8/6 516/8/6 518/8/6
f 518/8/6 516/8/6 519/8/6
f 517/4/6 518/4/6 521/4/6
f 521/4/6 518/4/6 522/4/6
f 519/4/6 520/4/6 523/4/6
f 523/4/6 520/4/6 524/4/6
f 525/6/6 526/6/6 527/6/6
f 527/6/6 526/6/6 528/6/6
f 529/5/6 530/5/6 531/5/6
f 531/5/6 530/5/6 532/5/6
f 533/2/6 534/2/6 535/2/6
f 535/2/6 534/2/6 536/2/6
f 537/4/6 538/4/6 540/4/6
f 540/4/6 538/4/6 541/4/6
f 539/4/6 540/4/6 543/4/6
f 543/4/6 540/4/6 544/4/6
f 541/4/6 542/4/6 545/4/6
f 545/4/6 542/4/6 546/4/6
f 547/4/6 548/4/6 549/4/6
f 549/4/6 548/4/6 550/4/6
f 551/3/6 552/3/6 553/3/6
f 553/3/6 552/3/6 554/3/6
f 555/3/6 556/3/6 557/3/6
f 557/3/6 556/3/6 558/3/6
f 559/3/6 560/3/6 561/3/6
f 561/3/6 560/3/6 562/3/6
f 563/3/6 564/3/6 565/3/6
f 565/3/6 564/3/6 566/3/6
f 567/3/6 568/3/6 569/3/6
f 569/3/6 568/3/6 570/3/6
f 571/3/6 572/3/6 573/3/6
f 573/3/6 572/3/6 574/3/6
f 575/3/6 576/3/6 577/3/6
f 577/3/6 576/3/6 578/3/6
f 579/3/6 580/3/6 581/3/6
f 581/3/6 580/3/6 582/3/6
