# MagicaVoxel @ Ephtracy

# group
o Pickaxe-1

# material
mtllib Fantasy Weapon - Source-10-Pickaxe-1.mtl
usemtl palette

# normals
vn -1 0 0
vn 1 0 0
vn 0 0 1
vn 0 0 -1
vn 0 -1 0
vn 0 1 0

# texcoords
vt 0.0371094 0.5
vt 0.560547 0.5
vt 0.619141 0.5
vt 0.642578 0.5
vt 0.724609 0.5
vt 0.728516 0.5

# verts
v -0.075 -0.075 -0.225
v -0.075 -0.075 -0.275
v -0.075 -0.025 -0.225
v -0.075 -0.025 -0.275
v -0.075 -0.025 -0.525
v -0.075 -0.025 -0.575
v -0.075 0.025 -0.225
v -0.075 0.025 -0.275
v -0.075 0.025 -0.525
v -0.075 0.025 -0.575
v -0.075 0.075 -0.225
v -0.075 0.075 -0.275
v -0.025 -0.425 0.375
v -0.025 -0.425 0.325
v -0.025 -0.425 0.225
v -0.025 -0.425 0.175
v -0.025 -0.375 0.425
v -0.025 -0.375 0.375
v -0.025 -0.375 0.325
v -0.025 -0.375 0.275
v -0.025 -0.375 0.225
v -0.025 -0.375 0.175
v -0.025 -0.325 0.375
v -0.025 -0.325 0.325
v -0.025 -0.325 0.275
v -0.025 -0.275 0.475
v -0.025 -0.275 0.425
v -0.025 -0.275 0.375
v -0.025 -0.275 0.325
v -0.025 -0.225 0.525
v -0.025 -0.225 0.475
v -0.025 -0.225 0.425
v -0.025 -0.225 0.375
v -0.025 -0.175 0.525
v -0.025 -0.175 0.475
v -0.025 -0.175 0.425
v -0.025 -0.175 0.375
v -0.025 -0.175 -0.225
v -0.025 -0.175 -0.275
v -0.025 -0.125 -0.225
v -0.025 -0.125 -0.275
v -0.025 -0.075 0.525
v -0.025 -0.075 0.475
v -0.025 -0.075 0.425
v -0.025 -0.075 0.375
v -0.025 -0.075 -0.225
v -0.025 -0.075 -0.275
v -0.025 -0.075 -0.525
v -0.025 -0.075 -0.575
v -0.025 -0.025 0.575
v -0.025 -0.025 0.525
v -0.025 -0.025 0.475
v -0.025 -0.025 0.425
v -0.025 -0.025 0.375
v -0.025 -0.025 -0.175
v -0.025 -0.025 -0.225
v -0.025 -0.025 -0.275
v -0.025 -0.025 -0.325
v -0.025 -0.025 -0.375
v -0.025 -0.025 -0.425
v -0.025 -0.025 -0.475
v -0.025 -0.025 -0.525
v -0.025 -0.025 -0.575
v -0.025 0.025 0.575
v -0.025 0.025 0.525
v -0.025 0.025 0.475
v -0.025 0.025 0.425
v -0.025 0.025 0.375
v -0.025 0.025 -0.175
v -0.025 0.025 -0.225
v -0.025 0.025 -0.275
v -0.025 0.025 -0.325
v -0.025 0.025 -0.375
v -0.025 0.025 -0.425
v -0.025 0.025 -0.475
v -0.025 0.025 -0.525
v -0.025 0.025 -0.575
v -0.025 0.075 0.525
v -0.025 0.075 0.475
v -0.025 0.075 0.425
v -0.025 0.075 0.375
v -0.025 0.075 -0.225
v -0.025 0.075 -0.275
v -0.025 0.075 -0.525
v -0.025 0.075 -0.575
v -0.025 0.125 -0.225
v -0.025 0.125 -0.275
v -0.025 0.175 0.525
v -0.025 0.175 0.475
v -0.025 0.175 0.425
v -0.025 0.175 0.375
v -0.025 0.175 -0.225
v -0.025 0.175 -0.275
v -0.025 0.225 0.525
v -0.025 0.225 0.475
v -0.025 0.225 0.425
v -0.025 0.225 0.375
v -0.025 0.275 0.475
v -0.025 0.275 0.425
v -0.025 0.275 0.375
v -0.025 0.275 0.325
v -0.025 0.325 0.375
v -0.025 0.325 0.325
v -0.025 0.325 0.275
v -0.025 0.375 0.425
v -0.025 0.375 0.375
v -0.025 0.375 0.325
v -0.025 0.375 0.275
v -0.025 0.375 0.225
v -0.025 0.375 0.175
v -0.025 0.425 0.375
v -0.025 0.425 0.325
v -0.025 0.425 0.225
v -0.025 0.425 0.175
v 0.025 -0.425 0.375
v 0.025 -0.425 0.325
v 0.025 -0.425 0.225
v 0.025 -0.425 0.175
v 0.025 -0.375 0.425
v 0.025 -0.375 0.375
v 0.025 -0.375 0.325
v 0.025 -0.375 0.275
v 0.025 -0.375 0.225
v 0.025 -0.375 0.175
v 0.025 -0.325 0.375
v 0.025 -0.325 0.325
v 0.025 -0.325 0.275
v 0.025 -0.275 0.475
v 0.025 -0.275 0.425
v 0.025 -0.275 0.375
v 0.025 -0.275 0.325
v 0.025 -0.225 0.525
v 0.025 -0.225 0.475
v 0.025 -0.225 0.425
v 0.025 -0.225 0.375
v 0.025 -0.175 0.525
v 0.025 -0.175 0.475
v 0.025 -0.175 0.425
v 0.025 -0.175 0.375
v 0.025 -0.175 -0.225
v 0.025 -0.175 -0.275
v 0.025 -0.125 -0.225
v 0.025 -0.125 -0.275
v 0.025 -0.075 0.525
v 0.025 -0.075 0.475
v 0.025 -0.075 0.425
v 0.025 -0.075 0.375
v 0.025 -0.075 -0.225
v 0.025 -0.075 -0.275
v 0.025 -0.075 -0.525
v 0.025 -0.075 -0.575
v 0.025 -0.025 0.575
v 0.025 -0.025 0.525
v 0.025 -0.025 0.475
v 0.025 -0.025 0.425
v 0.025 -0.025 0.375
v 0.025 -0.025 -0.175
v 0.025 -0.025 -0.225
v 0.025 -0.025 -0.275
v 0.025 -0.025 -0.325
v 0.025 -0.025 -0.375
v 0.025 -0.025 -0.425
v 0.025 -0.025 -0.475
v 0.025 -0.025 -0.525
v 0.025 -0.025 -0.575
v 0.025 0.025 0.575
v 0.025 0.025 0.525
v 0.025 0.025 0.475
v 0.025 0.025 0.425
v 0.025 0.025 0.375
v 0.025 0.025 -0.175
v 0.025 0.025 -0.225
v 0.025 0.025 -0.275
v 0.025 0.025 -0.325
v 0.025 0.025 -0.375
v 0.025 0.025 -0.425
v 0.025 0.025 -0.475
v 0.025 0.025 -0.525
v 0.025 0.025 -0.575
v 0.025 0.075 0.525
v 0.025 0.075 0.475
v 0.025 0.075 0.425
v 0.025 0.075 0.375
v 0.025 0.075 -0.225
v 0.025 0.075 -0.275
v 0.025 0.075 -0.525
v 0.025 0.075 -0.575
v 0.025 0.125 -0.225
v 0.025 0.125 -0.275
v 0.025 0.175 0.525
v 0.025 0.175 0.475
v 0.025 0.175 0.425
v 0.025 0.175 0.375
v 0.025 0.175 -0.225
v 0.025 0.175 -0.275
v 0.025 0.225 0.525
v 0.025 0.225 0.475
v 0.025 0.225 0.425
v 0.025 0.225 0.375
v 0.025 0.275 0.475
v 0.025 0.275 0.425
v 0.025 0.275 0.375
v 0.025 0.275 0.325
v 0.025 0.325 0.375
v 0.025 0.325 0.325
v 0.025 0.325 0.275
v 0.025 0.375 0.425
v 0.025 0.375 0.375
v 0.025 0.375 0.325
v 0.025 0.375 0.275
v 0.025 0.375 0.225
v 0.025 0.375 0.175
v 0.025 0.425 0.375
v 0.025 0.425 0.325
v 0.025 0.425 0.225
v 0.025 0.425 0.175
v 0.075 -0.075 -0.225
v 0.075 -0.075 -0.275
v 0.075 -0.025 -0.225
v 0.075 -0.025 -0.275
v 0.075 -0.025 -0.525
v 0.075 -0.025 -0.575
v 0.075 0.025 -0.225
v 0.075 0.025 -0.275
v 0.075 0.025 -0.525
v 0.075 0.025 -0.575
v 0.075 0.075 -0.225
v 0.075 0.075 -0.275
v -0.025 -0.025 0.575
v -0.025 0.025 0.575
v 0.025 -0.025 0.575
v 0.025 0.025 0.575
v -0.025 -0.225 0.525
v -0.025 -0.175 0.525
v -0.025 -0.075 0.525
v -0.025 -0.025 0.525
v -0.025 0.025 0.525
v -0.025 0.075 0.525
v -0.025 0.175 0.525
v -0.025 0.225 0.525
v 0.025 -0.225 0.525
v 0.025 -0.175 0.525
v 0.025 -0.075 0.525
v 0.025 -0.025 0.525
v 0.025 0.025 0.525
v 0.025 0.075 0.525
v 0.025 0.175 0.525
v 0.025 0.225 0.525
v -0.025 -0.275 0.475
v -0.025 -0.225 0.475
v -0.025 -0.175 0.475
v -0.025 -0.075 0.475
v -0.025 0.075 0.475
v -0.025 0.175 0.475
v -0.025 0.225 0.475
v -0.025 0.275 0.475
v 0.025 -0.275 0.475
v 0.025 -0.225 0.475
v 0.025 -0.175 0.475
v 0.025 -0.075 0.475
v 0.025 0.075 0.475
v 0.025 0.175 0.475
v 0.025 0.225 0.475
v 0.025 0.275 0.475
v -0.025 -0.375 0.425
v -0.025 -0.275 0.425
v -0.025 0.275 0.425
v -0.025 0.375 0.425
v 0.025 -0.375 0.425
v 0.025 -0.275 0.425
v 0.025 0.275 0.425
v 0.025 0.375 0.425
v -0.025 -0.425 0.375
v -0.025 -0.375 0.375
v -0.025 0.375 0.375
v -0.025 0.425 0.375
v 0.025 -0.425 0.375
v 0.025 -0.375 0.375
v 0.025 0.375 0.375
v 0.025 0.425 0.375
v -0.075 -0.075 -0.225
v -0.075 -0.025 -0.225
v -0.075 0.025 -0.225
v -0.075 0.075 -0.225
v -0.025 -0.175 -0.225
v -0.025 -0.125 -0.225
v -0.025 -0.075 -0.225
v -0.025 -0.025 -0.225
v -0.025 0.025 -0.225
v -0.025 0.075 -0.225
v -0.025 0.125 -0.225
v -0.025 0.175 -0.225
v 0.025 -0.175 -0.225
v 0.025 -0.125 -0.225
v 0.025 -0.075 -0.225
v 0.025 -0.025 -0.225
v 0.025 0.025 -0.225
v 0.025 0.075 -0.225
v 0.025 0.125 -0.225
v 0.025 0.175 -0.225
v 0.075 -0.075 -0.225
v 0.075 -0.025 -0.225
v 0.075 0.025 -0.225
v 0.075 0.075 -0.225
v -0.075 -0.025 -0.525
v -0.075 0.025 -0.525
v -0.025 -0.075 -0.525
v -0.025 -0.025 -0.525
v -0.025 0.025 -0.525
v -0.025 0.075 -0.525
v 0.025 -0.075 -0.525
v 0.025 -0.025 -0.525
v 0.025 0.025 -0.525
v 0.025 0.075 -0.525
v 0.075 -0.025 -0.525
v 0.075 0.025 -0.525
v -0.025 -0.275 0.375
v -0.025 -0.225 0.375
v -0.025 -0.175 0.375
v -0.025 -0.075 0.375
v -0.025 0.075 0.375
v -0.025 0.175 0.375
v -0.025 0.225 0.375
v -0.025 0.275 0.375
v 0.025 -0.275 0.375
v 0.025 -0.225 0.375
v 0.025 -0.175 0.375
v 0.025 -0.075 0.375
v 0.025 0.075 0.375
v 0.025 0.175 0.375
v 0.025 0.225 0.375
v 0.025 0.275 0.375
v -0.025 -0.325 0.325
v -0.025 -0.275 0.325
v -0.025 0.275 0.325
v -0.025 0.325 0.325
v 0.025 -0.325 0.325
v 0.025 -0.275 0.325
v 0.025 0.275 0.325
v 0.025 0.325 0.325
v -0.025 -0.375 0.275
v -0.025 -0.325 0.275
v -0.025 0.325 0.275
v -0.025 0.375 0.275
v 0.025 -0.375 0.275
v 0.025 -0.325 0.275
v 0.025 0.325 0.275
v 0.025 0.375 0.275
v -0.025 -0.425 0.175
v -0.025 -0.375 0.175
v -0.025 0.375 0.175
v -0.025 0.425 0.175
v 0.025 -0.425 0.175
v 0.025 -0.375 0.175
v 0.025 0.375 0.175
v 0.025 0.425 0.175
v -0.075 -0.075 -0.275
v -0.075 -0.025 -0.275
v -0.075 0.025 -0.275
v -0.075 0.075 -0.275
v -0.025 -0.175 -0.275
v -0.025 -0.125 -0.275
v -0.025 -0.075 -0.275
v -0.025 -0.025 -0.275
v -0.025 0.025 -0.275
v -0.025 0.075 -0.275
v -0.025 0.125 -0.275
v -0.025 0.175 -0.275
v 0.025 -0.175 -0.275
v 0.025 -0.125 -0.275
v 0.025 -0.075 -0.275
v 0.025 -0.025 -0.275
v 0.025 0.025 -0.275
v 0.025 0.075 -0.275
v 0.025 0.125 -0.275
v 0.025 0.175 -0.275
v 0.075 -0.075 -0.275
v 0.075 -0.025 -0.275
v 0.075 0.025 -0.275
v 0.075 0.075 -0.275
v -0.075 -0.025 -0.575
v -0.075 0.025 -0.575
v -0.025 -0.075 -0.575
v -0.025 -0.025 -0.575
v -0.025 0.025 -0.575
v -0.025 0.075 -0.575
v 0.025 -0.075 -0.575
v 0.025 -0.025 -0.575
v 0.025 0.025 -0.575
v 0.025 0.075 -0.575
v 0.075 -0.025 -0.575
v 0.075 0.025 -0.575
v -0.025 -0.425 0.375
v 0.025 -0.425 0.375
v -0.025 -0.425 0.325
v 0.025 -0.425 0.325
v -0.025 -0.425 0.225
v 0.025 -0.425 0.225
v -0.025 -0.425 0.175
v 0.025 -0.425 0.175
v -0.025 -0.375 0.425
v 0.025 -0.375 0.425
v -0.025 -0.375 0.375
v 0.025 -0.375 0.375
v -0.025 -0.275 0.475
v 0.025 -0.275 0.475
v -0.025 -0.275 0.425
v 0.025 -0.275 0.425
v -0.025 -0.225 0.525
v 0.025 -0.225 0.525
v -0.025 -0.225 0.475
v 0.025 -0.225 0.475
v -0.025 -0.175 -0.225
v 0.025 -0.175 -0.225
v -0.025 -0.175 -0.275
v 0.025 -0.175 -0.275
v -0.025 -0.075 0.525
v 0.025 -0.075 0.525
v -0.025 -0.075 0.475
v 0.025 -0.075 0.475
v -0.025 -0.075 0.375
v 0.025 -0.075 0.375
v -0.075 -0.075 -0.225
v -0.025 -0.075 -0.225
v 0.025 -0.075 -0.225
v 0.075 -0.075 -0.225
v -0.075 -0.075 -0.275
v -0.025 -0.075 -0.275
v 0.025 -0.075 -0.275
v 0.075 -0.075 -0.275
v -0.025 -0.075 -0.525
v 0.025 -0.075 -0.525
v -0.025 -0.075 -0.575
v 0.025 -0.075 -0.575
v -0.025 -0.025 0.575
v 0.025 -0.025 0.575
v -0.025 -0.025 0.525
v 0.025 -0.025 0.525
v -0.025 -0.025 -0.275
v 0.025 -0.025 -0.275
v -0.025 -0.025 -0.325
v 0.025 -0.025 -0.325
v -0.025 -0.025 -0.375
v 0.025 -0.025 -0.375
v -0.025 -0.025 -0.425
v 0.025 -0.025 -0.425
v -0.025 -0.025 -0.475
v 0.025 -0.025 -0.475
v -0.075 -0.025 -0.525
v -0.025 -0.025 -0.525
v 0.025 -0.025 -0.525
v 0.075 -0.025 -0.525
v -0.075 -0.025 -0.575
v -0.025 -0.025 -0.575
v 0.025 -0.025 -0.575
v 0.075 -0.025 -0.575
v -0.025 0.175 0.525
v 0.025 0.175 0.525
v -0.025 0.175 0.475
v 0.025 0.175 0.475
v -0.025 0.275 0.375
v 0.025 0.275 0.375
v -0.025 0.275 0.325
v 0.025 0.275 0.325
v -0.025 0.325 0.325
v 0.025 0.325 0.325
v -0.025 0.325 0.275
v 0.025 0.325 0.275
v -0.025 0.375 0.275
v 0.025 0.375 0.275
v -0.025 0.375 0.225
v 0.025 0.375 0.225
v -0.025 0.375 0.175
v 0.025 0.375 0.175
v -0.025 -0.375 0.275
v 0.025 -0.375 0.275
v -0.025 -0.375 0.225
v 0.025 -0.375 0.225
v -0.025 -0.375 0.175
v 0.025 -0.375 0.175
v -0.025 -0.325 0.325
v 0.025 -0.325 0.325
v -0.025 -0.325 0.275
v 0.025 -0.325 0.275
v -0.025 -0.275 0.375
v 0.025 -0.275 0.375
v -0.025 -0.275 0.325
v 0.025 -0.275 0.325
v -0.025 -0.175 0.525
v 0.025 -0.175 0.525
v -0.025 -0.175 0.475
v 0.025 -0.175 0.475
v -0.025 0.025 0.575
v 0.025 0.025 0.575
v -0.025 0.025 0.525
v 0.025 0.025 0.525
v -0.025 0.025 -0.275
v 0.025 0.025 -0.275
v -0.025 0.025 -0.325
v 0.025 0.025 -0.325
v -0.025 0.025 -0.375
v 0.025 0.025 -0.375
v -0.025 0.025 -0.425
v 0.025 0.025 -0.425
v -0.025 0.025 -0.475
v 0.025 0.025 -0.475
v -0.075 0.025 -0.525
v -0.025 0.025 -0.525
v 0.025 0.025 -0.525
v 0.075 0.025 -0.525
v -0.075 0.025 -0.575
v -0.025 0.025 -0.575
v 0.025 0.025 -0.575
v 0.075 0.025 -0.575
v -0.025 0.075 0.525
v 0.025 0.075 0.525
v -0.025 0.075 0.475
v 0.025 0.075 0.475
v -0.025 0.075 0.375
v 0.025 0.075 0.375
v -0.075 0.075 -0.225
v -0.025 0.075 -0.225
v 0.025 0.075 -0.225
v 0.075 0.075 -0.225
v -0.075 0.075 -0.275
v -0.025 0.075 -0.275
v 0.025 0.075 -0.275
v 0.075 0.075 -0.275
v -0.025 0.075 -0.525
v 0.025 0.075 -0.525
v -0.025 0.075 -0.575
v 0.025 0.075 -0.575
v -0.025 0.175 -0.225
v 0.025 0.175 -0.225
v -0.025 0.175 -0.275
v 0.025 0.175 -0.275
v -0.025 0.225 0.525
v 0.025 0.225 0.525
v -0.025 0.225 0.475
v 0.025 0.225 0.475
v -0.025 0.275 0.475
v 0.025 0.275 0.475
v -0.025 0.275 0.425
v 0.025 0.275 0.425
v -0.025 0.375 0.425
v 0.025 0.375 0.425
v -0.025 0.375 0.375
v 0.025 0.375 0.375
v -0.025 0.425 0.375
v 0.025 0.425 0.375
v -0.025 0.425 0.325
v 0.025 0.425 0.325
v -0.025 0.425 0.225
v 0.025 0.425 0.225
v -0.025 0.425 0.175
v 0.025 0.425 0.175

# faces
f 3/2/1 2/2/1 1/2/1
f 4/2/1 2/2/1 3/2/1
f 7/3/1 4/3/1 3/3/1
f 8/3/1 4/3/1 7/3/1
f 9/4/1 6/4/1 5/4/1
f 10/4/1 6/4/1 9/4/1
f 11/2/1 8/2/1 7/2/1
f 12/2/1 8/2/1 11/2/1
f 18/4/1 14/4/1 13/4/1
f 19/2/1 15/2/1 14/2/1
f 19/4/1 14/4/1 18/4/1
f 20/2/1 15/2/1 19/2/1
f 21/3/1 16/3/1 15/3/1
f 21/2/1 15/2/1 20/2/1
f 22/3/1 16/3/1 21/3/1
f 23/4/1 18/4/1 17/4/1
f 23/2/1 19/2/1 18/2/1
f 24/3/1 20/3/1 19/3/1
f 24/2/1 19/2/1 23/2/1
f 25/3/1 20/3/1 24/3/1
f 27/4/1 23/4/1 17/4/1
f 28/3/1 24/3/1 23/3/1
f 28/4/1 23/4/1 27/4/1
f 29/3/1 24/3/1 28/3/1
f 31/4/1 27/4/1 26/4/1
f 32/2/1 28/2/1 27/2/1
f 32/4/1 27/4/1 31/4/1
f 33/2/1 28/2/1 32/2/1
f 34/4/1 31/4/1 30/4/1
f 35/2/1 32/2/1 31/2/1
f 35/4/1 31/4/1 34/4/1
f 36/3/1 33/3/1 32/3/1
f 36/2/1 32/2/1 35/2/1
f 37/3/1 33/3/1 36/3/1
f 40/3/1 39/3/1 38/3/1
f 41/3/1 39/3/1 40/3/1
f 43/4/1 36/4/1 35/4/1
f 44/2/1 37/2/1 36/2/1
f 44/4/1 36/4/1 43/4/1
f 45/2/1 37/2/1 44/2/1
f 46/2/1 41/2/1 40/2/1
f 47/2/1 41/2/1 46/2/1
f 51/4/1 43/4/1 42/4/1
f 52/2/1 44/2/1 43/2/1
f 52/4/1 43/4/1 51/4/1
f 53/3/1 46/3/1 45/3/1
f 53/2/1 44/2/1 52/2/1
f 53/3/1 45/3/1 44/3/1
f 54/3/1 46/3/1 53/3/1
f 55/3/1 46/3/1 54/3/1
f 56/3/1 46/3/1 55/3/1
f 62/4/1 49/4/1 48/4/1
f 63/4/1 49/4/1 62/4/1
f 64/4/1 52/4/1 51/4/1
f 64/4/1 51/4/1 50/4/1
f 65/4/1 52/4/1 64/4/1
f 66/1/1 53/1/1 52/1/1
f 66/4/1 52/4/1 65/4/1
f 67/3/1 54/3/1 53/3/1
f 67/1/1 53/1/1 66/1/1
f 68/2/1 55/2/1 54/2/1
f 68/3/1 54/3/1 67/3/1
f 69/3/1 56/3/1 55/3/1
f 69/2/1 55/2/1 68/2/1
f 70/3/1 56/3/1 69/3/1
f 71/5/1 58/5/1 57/5/1
f 72/6/1 59/6/1 58/6/1
f 72/5/1 58/5/1 71/5/1
f 73/5/1 60/5/1 59/5/1
f 73/6/1 59/6/1 72/6/1
f 74/4/1 61/4/1 60/4/1
f 74/5/1 60/5/1 73/5/1
f 75/1/1 62/1/1 61/1/1
f 75/4/1 61/4/1 74/4/1
f 76/1/1 62/1/1 75/1/1
f 78/4/1 66/4/1 65/4/1
f 79/2/1 67/2/1 66/2/1
f 79/4/1 66/4/1 78/4/1
f 80/3/1 69/3/1 68/3/1
f 80/2/1 67/2/1 79/2/1
f 80/3/1 68/3/1 67/3/1
f 80/3/1 70/3/1 69/3/1
f 81/3/1 70/3/1 80/3/1
f 82/3/1 70/3/1 81/3/1
f 84/4/1 77/4/1 76/4/1
f 85/4/1 77/4/1 84/4/1
f 86/2/1 83/2/1 82/2/1
f 87/2/1 83/2/1 86/2/1
f 89/4/1 80/4/1 79/4/1
f 90/2/1 81/2/1 80/2/1
f 90/4/1 80/4/1 89/4/1
f 91/2/1 81/2/1 90/2/1
f 92/3/1 87/3/1 86/3/1
f 93/3/1 87/3/1 92/3/1
f 94/4/1 89/4/1 88/4/1
f 95/2/1 90/2/1 89/2/1
f 95/4/1 89/4/1 94/4/1
f 96/3/1 91/3/1 90/3/1
f 96/2/1 90/2/1 95/2/1
f 97/3/1 91/3/1 96/3/1
f 98/4/1 96/4/1 95/4/1
f 99/2/1 97/2/1 96/2/1
f 99/4/1 96/4/1 98/4/1
f 100/2/1 97/2/1 99/2/1
f 102/4/1 100/4/1 99/4/1
f 102/3/1 101/3/1 100/3/1
f 103/3/1 101/3/1 102/3/1
f 105/4/1 102/4/1 99/4/1
f 106/2/1 103/2/1 102/2/1
f 106/4/1 102/4/1 105/4/1
f 107/3/1 104/3/1 103/3/1
f 107/2/1 103/2/1 106/2/1
f 108/3/1 104/3/1 107/3/1
f 111/4/1 107/4/1 106/4/1
f 112/2/1 109/2/1 108/2/1
f 112/4/1 107/4/1 111/4/1
f 112/2/1 108/2/1 107/2/1
f 113/3/1 110/3/1 109/3/1
f 113/2/1 109/2/1 112/2/1
f 114/3/1 110/3/1 113/3/1
f 115/4/2 116/4/2 120/4/2
f 116/2/2 117/2/2 121/2/2
f 120/4/2 116/4/2 121/4/2
f 121/2/2 117/2/2 122/2/2
f 117/3/2 118/3/2 123/3/2
f 122/2/2 117/2/2 123/2/2
f 123/3/2 118/3/2 124/3/2
f 119/4/2 120/4/2 125/4/2
f 120/2/2 121/2/2 125/2/2
f 121/3/2 122/3/2 126/3/2
f 125/2/2 121/2/2 126/2/2
f 126/3/2 122/3/2 127/3/2
f 119/4/2 125/4/2 129/4/2
f 125/3/2 126/3/2 130/3/2
f 129/4/2 125/4/2 130/4/2
f 130/3/2 126/3/2 131/3/2
f 128/4/2 129/4/2 133/4/2
f 129/2/2 130/2/2 134/2/2
f 133/4/2 129/4/2 134/4/2
f 134/2/2 130/2/2 135/2/2
f 132/4/2 133/4/2 136/4/2
f 133/2/2 134/2/2 137/2/2
f 136/4/2 133/4/2 137/4/2
f 134/3/2 135/3/2 138/3/2
f 137/2/2 134/2/2 138/2/2
f 138/3/2 135/3/2 139/3/2
f 140/3/2 141/3/2 142/3/2
f 142/3/2 141/3/2 143/3/2
f 137/4/2 138/4/2 145/4/2
f 138/2/2 139/2/2 146/2/2
f 145/4/2 138/4/2 146/4/2
f 146/2/2 139/2/2 147/2/2
f 142/2/2 143/2/2 148/2/2
f 148/2/2 143/2/2 149/2/2
f 144/4/2 145/4/2 153/4/2
f 145/2/2 146/2/2 154/2/2
f 153/4/2 145/4/2 154/4/2
f 147/3/2 148/3/2 155/3/2
f 154/2/2 146/2/2 155/2/2
f 146/3/2 147/3/2 155/3/2
f 155/3/2 148/3/2 156/3/2
f 156/3/2 148/3/2 157/3/2
f 157/3/2 148/3/2 158/3/2
f 150/4/2 151/4/2 164/4/2
f 164/4/2 151/4/2 165/4/2
f 153/4/2 154/4/2 166/4/2
f 152/4/2 153/4/2 166/4/2
f 166/4/2 154/4/2 167/4/2
f 154/1/2 155/1/2 168/1/2
f 167/4/2 154/4/2 168/4/2
f 155/3/2 156/3/2 169/3/2
f 168/1/2 155/1/2 169/1/2
f 156/2/2 157/2/2 170/2/2
f 169/3/2 156/3/2 170/3/2
f 157/3/2 158/3/2 171/3/2
f 170/2/2 157/2/2 171/2/2
f 171/3/2 158/3/2 172/3/2
f 159/5/2 160/5/2 173/5/2
f 160/6/2 161/6/2 174/6/2
f 173/5/2 160/5/2 174/5/2
f 161/5/2 162/5/2 175/5/2
f 174/6/2 161/6/2 175/6/2
f 162/4/2 163/4/2 176/4/2
f 175/5/2 162/5/2 176/5/2
f 163/1/2 164/1/2 177/1/2
f 176/4/2 163/4/2 177/4/2
f 177/1/2 164/1/2 178/1/2
f 167/4/2 168/4/2 180/4/2
f 168/2/2 169/2/2 181/2/2
f 180/4/2 168/4/2 181/4/2
f 170/3/2 171/3/2 182/3/2
f 181/2/2 169/2/2 182/2/2
f 169/3/2 170/3/2 182/3/2
f 171/3/2 172/3/2 182/3/2
f 182/3/2 172/3/2 183/3/2
f 183/3/2 172/3/2 184/3/2
f 178/4/2 179/4/2 186/4/2
f 186/4/2 179/4/2 187/4/2
f 184/2/2 185/2/2 188/2/2
f 188/2/2 185/2/2 189/2/2
f 181/4/2 182/4/2 191/4/2
f 182/2/2 183/2/2 192/2/2
f 191/4/2 182/4/2 192/4/2
f 192/2/2 183/2/2 193/2/2
f 188/3/2 189/3/2 194/3/2
f 194/3/2 189/3/2 195/3/2
f 190/4/2 191/4/2 196/4/2
f 191/2/2 192/2/2 197/2/2
f 196/4/2 191/4/2 197/4/2
f 192/3/2 193/3/2 198/3/2
f 197/2/2 192/2/2 198/2/2
f 198/3/2 193/3/2 199/3/2
f 197/4/2 198/4/2 200/4/2
f 198/2/2 199/2/2 201/2/2
f 200/4/2 198/4/2 201/4/2
f 201/2/2 199/2/2 202/2/2
f 201/4/2 202/4/2 204/4/2
f 202/3/2 203/3/2 204/3/2
f 204/3/2 203/3/2 205/3/2
f 201/4/2 204/4/2 207/4/2
f 204/2/2 205/2/2 208/2/2
f 207/4/2 204/4/2 208/4/2
f 205/3/2 206/3/2 209/3/2
f 208/2/2 205/2/2 209/2/2
f 209/3/2 206/3/2 210/3/2
f 208/4/2 209/4/2 213/4/2
f 210/2/2 211/2/2 214/2/2
f 213/4/2 209/4/2 214/4/2
f 209/2/2 210/2/2 214/2/2
f 211/3/2 212/3/2 215/3/2
f 214/2/2 211/2/2 215/2/2
f 215/3/2 212/3/2 216/3/2
f 217/2/2 218/2/2 219/2/2
f 219/2/2 218/2/2 220/2/2
f 219/3/2 220/3/2 223/3/2
f 223/3/2 220/3/2 224/3/2
f 221/4/2 222/4/2 225/4/2
f 225/4/2 222/4/2 226/4/2
f 223/2/2 224/2/2 227/2/2
f 227/2/2 224/2/2 228/2/2
f 231/4/3 230/4/3 229/4/3
f 232/4/3 230/4/3 231/4/3
f 241/4/3 234/4/3 233/4/3
f 242/4/3 234/4/3 241/4/3
f 243/4/3 236/4/3 235/4/3
f 244/4/3 236/4/3 243/4/3
f 245/4/3 238/4/3 237/4/3
f 246/4/3 238/4/3 245/4/3
f 247/4/3 240/4/3 239/4/3
f 248/4/3 240/4/3 247/4/3
f 257/4/3 250/4/3 249/4/3
f 258/4/3 250/4/3 257/4/3
f 259/4/3 252/4/3 251/4/3
f 260/4/3 252/4/3 259/4/3
f 261/4/3 254/4/3 253/4/3
f 262/4/3 254/4/3 261/4/3
f 263/4/3 256/4/3 255/4/3
f 264/4/3 256/4/3 263/4/3
f 269/4/3 266/4/3 265/4/3
f 270/4/3 266/4/3 269/4/3
f 271/4/3 268/4/3 267/4/3
f 272/4/3 268/4/3 271/4/3
f 277/4/3 274/4/3 273/4/3
f 278/4/3 274/4/3 277/4/3
f 279/4/3 276/4/3 275/4/3
f 280/4/3 276/4/3 279/4/3
f 287/2/3 282/2/3 281/2/3
f 288/3/3 283/3/3 282/3/3
f 288/2/3 282/2/3 287/2/3
f 289/2/3 284/2/3 283/2/3
f 289/3/3 283/3/3 288/3/3
f 290/2/3 284/2/3 289/2/3
f 293/3/3 286/3/3 285/3/3
f 294/2/3 287/2/3 286/2/3
f 294/3/3 286/3/3 293/3/3
f 295/2/3 287/2/3 294/2/3
f 298/2/3 291/2/3 290/2/3
f 299/3/3 292/3/3 291/3/3
f 299/2/3 291/2/3 298/2/3
f 300/3/3 292/3/3 299/3/3
f 301/2/3 296/2/3 295/2/3
f 302/3/3 297/3/3 296/3/3
f 302/2/3 296/2/3 301/2/3
f 303/2/3 298/2/3 297/2/3
f 303/3/3 297/3/3 302/3/3
f 304/2/3 298/2/3 303/2/3
f 308/4/3 306/4/3 305/4/3
f 309/4/3 306/4/3 308/4/3
f 311/4/3 308/4/3 307/4/3
f 312/4/3 308/4/3 311/4/3
f 313/4/3 310/4/3 309/4/3
f 314/4/3 310/4/3 313/4/3
f 315/4/3 313/4/3 312/4/3
f 316/4/3 313/4/3 315/4/3
f 317/2/4 318/2/4 325/2/4
f 318/3/4 319/3/4 326/3/4
f 325/2/4 318/2/4 326/2/4
f 319/2/4 320/2/4 327/2/4
f 326/3/4 319/3/4 327/3/4
f 327/2/4 320/2/4 328/2/4
f 321/2/4 322/2/4 329/2/4
f 322/3/4 323/3/4 330/3/4
f 329/2/4 322/2/4 330/2/4
f 323/2/4 324/2/4 331/2/4
f 330/3/4 323/3/4 331/3/4
f 331/2/4 324/2/4 332/2/4
f 333/3/4 334/3/4 337/3/4
f 337/3/4 334/3/4 338/3/4
f 335/3/4 336/3/4 339/3/4
f 339/3/4 336/3/4 340/3/4
f 341/3/4 342/3/4 345/3/4
f 345/3/4 342/3/4 346/3/4
f 343/3/4 344/3/4 347/3/4
f 347/3/4 344/3/4 348/3/4
f 349/3/4 350/3/4 353/3/4
f 353/3/4 350/3/4 354/3/4
f 351/3/4 352/3/4 355/3/4
f 355/3/4 352/3/4 356/3/4
f 357/2/4 358/2/4 363/2/4
f 358/3/4 359/3/4 364/3/4
f 363/2/4 358/2/4 364/2/4
f 359/2/4 360/2/4 365/2/4
f 364/3/4 359/3/4 365/3/4
f 365/2/4 360/2/4 366/2/4
f 361/3/4 362/3/4 369/3/4
f 362/2/4 363/2/4 370/2/4
f 369/3/4 362/3/4 370/3/4
f 363/2/4 364/2/4 370/2/4
f 370/2/4 364/2/4 371/2/4
f 371/2/4 364/2/4 372/2/4
f 365/2/4 366/2/4 373/2/4
f 366/2/4 367/2/4 373/2/4
f 373/2/4 367/2/4 374/2/4
f 367/3/4 368/3/4 375/3/4
f 374/2/4 367/2/4 375/2/4
f 375/3/4 368/3/4 376/3/4
f 371/2/4 372/2/4 377/2/4
f 372/3/4 373/3/4 378/3/4
f 377/2/4 372/2/4 378/2/4
f 373/2/4 374/2/4 379/2/4
f 378/3/4 373/3/4 379/3/4
f 379/2/4 374/2/4 380/2/4
f 381/4/4 382/4/4 384/4/4
f 384/4/4 382/4/4 385/4/4
f 383/4/4 384/4/4 387/4/4
f 384/2/4 385/2/4 388/2/4
f 387/4/4 384/4/4 388/4/4
f 385/4/4 386/4/4 389/4/4
f 388/2/4 385/2/4 389/2/4
f 389/4/4 386/4/4 390/4/4
f 388/4/4 389/4/4 391/4/4
f 391/4/4 389/4/4 392/4/4
f 395/4/5 394/4/5 393/4/5
f 396/4/5 394/4/5 395/4/5
f 397/2/5 396/2/5 395/2/5
f 398/2/5 396/2/5 397/2/5
f 399/3/5 398/3/5 397/3/5
f 400/3/5 398/3/5 399/3/5
f 403/4/5 402/4/5 401/4/5
f 404/4/5 402/4/5 403/4/5
f 407/4/5 406/4/5 405/4/5
f 408/4/5 406/4/5 407/4/5
f 411/4/5 410/4/5 409/4/5
f 412/4/5 410/4/5 411/4/5
f 415/3/5 414/3/5 413/3/5
f 416/3/5 414/3/5 415/3/5
f 419/4/5 418/4/5 417/4/5
f 420/4/5 418/4/5 419/4/5
f 424/3/5 422/3/5 421/3/5
f 425/3/5 422/3/5 424/3/5
f 427/2/5 424/2/5 423/2/5
f 428/2/5 424/2/5 427/2/5
f 429/2/5 426/2/5 425/2/5
f 430/2/5 426/2/5 429/2/5
f 433/4/5 432/4/5 431/4/5
f 434/4/5 432/4/5 433/4/5
f 437/4/5 436/4/5 435/4/5
f 438/4/5 436/4/5 437/4/5
f 441/5/5 440/5/5 439/5/5
f 442/5/5 440/5/5 441/5/5
f 443/6/5 442/6/5 441/6/5
f 444/6/5 442/6/5 443/6/5
f 445/5/5 444/5/5 443/5/5
f 446/5/5 444/5/5 445/5/5
f 447/4/5 446/4/5 445/4/5
f 448/4/5 446/4/5 447/4/5
f 450/1/5 448/1/5 447/1/5
f 451/1/5 448/1/5 450/1/5
f 453/4/5 450/4/5 449/4/5
f 454/4/5 450/4/5 453/4/5
f 455/4/5 452/4/5 451/4/5
f 456/4/5 452/4/5 455/4/5
f 459/4/5 458/4/5 457/4/5
f 460/4/5 458/4/5 459/4/5
f 463/3/5 462/3/5 461/3/5
f 464/3/5 462/3/5 463/3/5
f 467/3/5 466/3/5 465/3/5
f 468/3/5 466/3/5 467/3/5
f 471/2/5 470/2/5 469/2/5
f 472/2/5 470/2/5 471/2/5
f 473/3/5 472/3/5 471/3/5
f 474/3/5 472/3/5 473/3/5
f 475/2/6 476/2/6 477/2/6
f 477/2/6 476/2/6 478/2/6
f 477/3/6 478/3/6 479/3/6
f 479/3/6 478/3/6 480/3/6
f 481/3/6 482/3/6 483/3/6
f 483/3/6 482/3/6 484/3/6
f 485/3/6 486/3/6 487/3/6
f 487/3/6 486/3/6 488/3/6
f 489/4/6 490/4/6 491/4/6
f 491/4/6 490/4/6 492/4/6
f 493/4/6 494/4/6 495/4/6
f 495/4/6 494/4/6 496/4/6
f 497/5/6 498/5/6 499/5/6
f 499/5/6 498/5/6 500/5/6
f 499/6/6 500/6/6 501/6/6
f 501/6/6 500/6/6 502/6/6
f 501/5/6 502/5/6 503/5/6
f 503/5/6 502/5/6 504/5/6
f 503/4/6 504/4/6 505/4/6
f 505/4/6 504/4/6 506/4/6
f 505/1/6 506/1/6 508/1/6
f 508/1/6 506/1/6 509/1/6
f 507/4/6 508/4/6 511/4/6
f 511/4/6 508/4/6 512/4/6
f 509/4/6 510/4/6 513/4/6
f 513/4/6 510/4/6 514/4/6
f 515/4/6 516/4/6 517/4/6
f 517/4/6 516/4/6 518/4/6
f 519/3/6 520/3/6 522/3/6
f 522/3/6 520/3/6 523/3/6
f 521/2/6 522/2/6 525/2/6
f 525/2/6 522/2/6 526/2/6
f 523/2/6 524/2/6 527/2/6
f 527/2/6 524/2/6 528/2/6
f 529/4/6 530/4/6 531/4/6
f 531/4/6 530/4/6 532/4/6
f 533/3/6 534/3/6 535/3/6
f 535/3/6 534/3/6 536/3/6
f 537/4/6 538/4/6 539/4/6
f 539/4/6 538/4/6 540/4/6
f 541/4/6 542/4/6 543/4/6
f 543/4/6 542/4/6 544/4/6
f 545/4/6 546/4/6 547/4/6
f 547/4/6 546/4/6 548/4/6
f 549/4/6 550/4/6 551/4/6
f 551/4/6 550/4/6 552/4/6
f 551/2/6 552/2/6 553/2/6
f 553/2/6 552/2/6 554/2/6
f 553/3/6 554/3/6 555/3/6
f 555/3/6 554/3/6 556/3/6
