# MagicaVoxel @ Ephtracy

# group
o Scythe-1

# material
mtllib Fantasy Weapon - Source-33-Scythe-1.mtl
usemtl palette

# normals
vn -1 0 0
vn 1 0 0
vn 0 0 1
vn 0 0 -1
vn 0 -1 0
vn 0 1 0

# texcoords
vt 0.126953 0.5
vt 0.275391 0.5
vt 0.279297 0.5
vt 0.306641 0.5
vt 0.310547 0.5
vt 0.373047 0.5
vt 0.388672 0.5
vt 0.392578 0.5
vt 0.396484 0.5
vt 0.400391 0.5
vt 0.587891 0.5
vt 0.646484 0.5
vt 0.865234 0.5

# verts
v -0.075 0.05 0.475
v -0.075 0.05 0.425
v -0.075 0.05 0.375
v -0.075 0.1 0.575
v -0.075 0.1 0.525
v -0.075 0.1 0.475
v -0.075 0.15 0.375
v -0.075 0.15 0.325
v -0.075 0.25 0.425
v -0.075 0.25 0.375
v -0.075 0.3 0.525
v -0.075 0.3 0.425
v -0.075 0.35 0.575
v -0.075 0.35 0.475
v -0.075 0.4 0.475
v -0.075 0.4 0.375
v -0.075 0.4 0.325
v -0.025 -0.45 0.325
v -0.025 -0.45 0.025
v -0.025 -0.45 -0.025
v -0.025 -0.4 0.375
v -0.025 -0.4 0.325
v -0.025 -0.4 0.125
v -0.025 -0.4 0.075
v -0.025 -0.4 0.025
v -0.025 -0.4 -0.025
v -0.025 -0.35 0.525
v -0.025 -0.35 0.475
v -0.025 -0.35 0.425
v -0.025 -0.35 0.375
v -0.025 -0.35 0.325
v -0.025 -0.35 0.225
v -0.025 -0.35 0.125
v -0.025 -0.35 0.075
v -0.025 -0.35 0.025
v -0.025 -0.3 0.575
v -0.025 -0.3 0.525
v -0.025 -0.3 0.475
v -0.025 -0.3 0.425
v -0.025 -0.3 0.275
v -0.025 -0.3 0.225
v -0.025 -0.3 0.175
v -0.025 -0.3 0.125
v -0.025 -0.3 0.075
v -0.025 -0.25 0.575
v -0.025 -0.25 0.525
v -0.025 -0.25 0.475
v -0.025 -0.25 0.425
v -0.025 -0.25 0.375
v -0.025 -0.25 0.325
v -0.025 -0.25 0.275
v -0.025 -0.25 0.225
v -0.025 -0.25 0.175
v -0.025 -0.25 0.125
v -0.025 -0.2 0.575
v -0.025 -0.2 0.525
v -0.025 -0.2 0.475
v -0.025 -0.2 0.275
v -0.025 -0.2 0.225
v -0.025 -0.2 0.175
v -0.025 -0.15 0.625
v -0.025 -0.15 0.575
v -0.025 -0.15 0.525
v -0.025 -0.15 0.475
v -0.025 -0.15 0.375
v -0.025 -0.15 0.325
v -0.025 -0.1 0.625
v -0.025 -0.1 0.575
v -0.025 -0.1 0.525
v -0.025 -0.1 0.475
v -0.025 -0.1 0.425
v -0.025 -0.1 0.325
v -0.025 -0.1 0.275
v -0.025 -0.1 0.225
v -0.025 0 0.625
v -0.025 0 0.575
v -0.025 0 0.525
v -0.025 0 0.475
v -0.025 0 0.425
v -0.025 0 0.375
v -0.025 0 0.325
v -0.025 0 0.275
v -0.025 0.05 0.675
v -0.025 0.05 0.625
v -0.025 0.05 0.575
v -0.025 0.05 0.525
v -0.025 0.05 0.475
v -0.025 0.05 0.425
v -0.025 0.05 0.375
v -0.025 0.1 0.675
v -0.025 0.1 0.625
v -0.025 0.1 0.525
v -0.025 0.1 0.475
v -0.025 0.15 0.375
v -0.025 0.15 0.325
v -0.025 0.25 0.625
v -0.025 0.25 0.575
v -0.025 0.25 0.325
v -0.025 0.25 0.225
v -0.025 0.25 0.125
v -0.025 0.25 0.075
v -0.025 0.3 0.675
v -0.025 0.3 0.625
v -0.025 0.3 0.575
v -0.025 0.3 0.275
v -0.025 0.3 0.225
v -0.025 0.3 0.125
v -0.025 0.3 0.075
v -0.025 0.3 0.025
v -0.025 0.3 -0.225
v -0.025 0.3 -0.425
v -0.025 0.3 -0.475
v -0.025 0.3 -0.525
v -0.025 0.3 -0.625
v -0.025 0.3 -0.675
v -0.025 0.35 0.675
v -0.025 0.35 0.625
v -0.025 0.35 0.575
v -0.025 0.35 0.475
v -0.025 0.35 0.325
v -0.025 0.35 0.275
v -0.025 0.35 0.125
v -0.025 0.35 0.075
v -0.025 0.35 0.025
v -0.025 0.35 -0.025
v -0.025 0.35 -0.075
v -0.025 0.35 -0.125
v -0.025 0.35 -0.225
v -0.025 0.35 -0.425
v -0.025 0.35 -0.475
v -0.025 0.35 -0.525
v -0.025 0.35 -0.575
v -0.025 0.35 -0.625
v -0.025 0.4 0.625
v -0.025 0.4 0.575
v -0.025 0.4 0.525
v -0.025 0.4 0.475
v -0.025 0.4 0.425
v -0.025 0.4 -0.025
v -0.025 0.4 -0.075
v -0.025 0.4 -0.125
v -0.025 0.4 -0.525
v -0.025 0.4 -0.575
v -0.025 0.4 -0.625
v -0.025 0.4 -0.675
v -0.025 0.45 0.625
v -0.025 0.45 0.575
v -0.025 0.45 0.525
v -0.025 0.45 0.475
v -0.025 0.45 0.425
v -0.025 0.45 -0.025
v -0.025 0.45 -0.075
v -0.025 0.45 -0.525
v -0.025 0.45 -0.575
v 0.025 -0.45 0.325
v 0.025 -0.45 0.025
v 0.025 -0.45 -0.025
v 0.025 -0.4 0.375
v 0.025 -0.4 0.325
v 0.025 -0.4 0.125
v 0.025 -0.4 0.075
v 0.025 -0.4 0.025
v 0.025 -0.4 -0.025
v 0.025 -0.35 0.525
v 0.025 -0.35 0.475
v 0.025 -0.35 0.425
v 0.025 -0.35 0.375
v 0.025 -0.35 0.325
v 0.025 -0.35 0.225
v 0.025 -0.35 0.125
v 0.025 -0.35 0.075
v 0.025 -0.35 0.025
v 0.025 -0.3 0.575
v 0.025 -0.3 0.525
v 0.025 -0.3 0.475
v 0.025 -0.3 0.425
v 0.025 -0.3 0.275
v 0.025 -0.3 0.225
v 0.025 -0.3 0.175
v 0.025 -0.3 0.125
v 0.025 -0.3 0.075
v 0.025 -0.25 0.575
v 0.025 -0.25 0.525
v 0.025 -0.25 0.475
v 0.025 -0.25 0.425
v 0.025 -0.25 0.375
v 0.025 -0.25 0.325
v 0.025 -0.25 0.275
v 0.025 -0.25 0.225
v 0.025 -0.25 0.175
v 0.025 -0.25 0.125
v 0.025 -0.2 0.575
v 0.025 -0.2 0.525
v 0.025 -0.2 0.475
v 0.025 -0.2 0.275
v 0.025 -0.2 0.225
v 0.025 -0.2 0.175
v 0.025 -0.15 0.625
v 0.025 -0.15 0.575
v 0.025 -0.15 0.525
v 0.025 -0.15 0.475
v 0.025 -0.15 0.375
v 0.025 -0.15 0.325
v 0.025 -0.1 0.625
v 0.025 -0.1 0.575
v 0.025 -0.1 0.525
v 0.025 -0.1 0.475
v 0.025 -0.1 0.425
v 0.025 -0.1 0.325
v 0.025 -0.1 0.275
v 0.025 -0.1 0.225
v 0.025 0 0.625
v 0.025 0 0.575
v 0.025 0 0.525
v 0.025 0 0.475
v 0.025 0 0.425
v 0.025 0 0.375
v 0.025 0 0.325
v 0.025 0 0.275
v 0.025 0.05 0.675
v 0.025 0.05 0.625
v 0.025 0.05 0.575
v 0.025 0.05 0.525
v 0.025 0.05 0.425
v 0.025 0.1 0.675
v 0.025 0.1 0.625
v 0.025 0.1 0.575
v 0.025 0.1 0.525
v 0.025 0.1 0.425
v 0.025 0.1 0.375
v 0.025 0.15 0.375
v 0.025 0.15 0.325
v 0.025 0.2 0.575
v 0.025 0.2 0.525
v 0.025 0.25 0.625
v 0.025 0.25 0.575
v 0.025 0.25 0.325
v 0.025 0.25 0.225
v 0.025 0.25 0.125
v 0.025 0.25 0.075
v 0.025 0.3 0.675
v 0.025 0.3 0.625
v 0.025 0.3 0.575
v 0.025 0.3 0.275
v 0.025 0.3 0.225
v 0.025 0.3 0.125
v 0.025 0.3 0.075
v 0.025 0.3 0.025
v 0.025 0.3 -0.225
v 0.025 0.3 -0.425
v 0.025 0.3 -0.475
v 0.025 0.3 -0.525
v 0.025 0.3 -0.625
v 0.025 0.3 -0.675
v 0.025 0.35 0.675
v 0.025 0.35 0.625
v 0.025 0.35 0.425
v 0.025 0.35 0.375
v 0.025 0.35 0.325
v 0.025 0.35 0.275
v 0.025 0.35 0.125
v 0.025 0.35 0.075
v 0.025 0.35 0.025
v 0.025 0.35 -0.025
v 0.025 0.35 -0.075
v 0.025 0.35 -0.125
v 0.025 0.35 -0.225
v 0.025 0.35 -0.425
v 0.025 0.35 -0.475
v 0.025 0.35 -0.525
v 0.025 0.35 -0.575
v 0.025 0.35 -0.625
v 0.025 0.4 0.625
v 0.025 0.4 0.575
v 0.025 0.4 0.525
v 0.025 0.4 0.475
v 0.025 0.4 0.425
v 0.025 0.4 0.375
v 0.025 0.4 0.325
v 0.025 0.4 -0.025
v 0.025 0.4 -0.075
v 0.025 0.4 -0.125
v 0.025 0.4 -0.525
v 0.025 0.4 -0.575
v 0.025 0.4 -0.625
v 0.025 0.4 -0.675
v 0.025 0.45 0.625
v 0.025 0.45 0.575
v 0.025 0.45 0.525
v 0.025 0.45 0.475
v 0.025 0.45 0.425
v 0.025 0.45 -0.025
v 0.025 0.45 -0.075
v 0.025 0.45 -0.525
v 0.025 0.45 -0.575
v 0.075 0.05 0.525
v 0.075 0.05 0.425
v 0.075 0.1 0.425
v 0.075 0.1 0.375
v 0.075 0.15 0.375
v 0.075 0.15 0.325
v 0.075 0.2 0.575
v 0.075 0.2 0.525
v 0.075 0.25 0.525
v 0.075 0.25 0.475
v 0.075 0.3 0.425
v 0.075 0.3 0.375
v 0.075 0.35 0.475
v 0.075 0.35 0.425
v 0.075 0.35 0.375
v 0.075 0.35 0.325
v 0.075 0.4 0.575
v 0.075 0.4 0.425
v -0.025 0.05 0.675
v -0.025 0.1 0.675
v -0.025 0.3 0.675
v -0.025 0.35 0.675
v 0.025 0.05 0.675
v 0.025 0.1 0.675
v 0.025 0.3 0.675
v 0.025 0.35 0.675
v -0.025 -0.15 0.625
v -0.025 -0.1 0.625
v -0.025 0 0.625
v -0.025 0.05 0.625
v -0.025 0.25 0.625
v -0.025 0.3 0.625
v -0.025 0.4 0.625
v -0.025 0.45 0.625
v 0.025 -0.15 0.625
v 0.025 -0.1 0.625
v 0.025 0 0.625
v 0.025 0.05 0.625
v 0.025 0.25 0.625
v 0.025 0.3 0.625
v 0.025 0.4 0.625
v 0.025 0.45 0.625
v -0.075 0.1 0.575
v -0.075 0.35 0.575
v -0.025 -0.3 0.575
v -0.025 -0.25 0.575
v -0.025 -0.2 0.575
v -0.025 -0.15 0.575
v -0.025 0.2 0.575
v -0.025 0.25 0.575
v -0.025 0.3 0.575
v -0.025 0.35 0.575
v -0.025 0.4 0.575
v 0.025 -0.3 0.575
v 0.025 -0.25 0.575
v 0.025 -0.2 0.575
v 0.025 -0.15 0.575
v 0.025 0.1 0.575
v 0.025 0.2 0.575
v 0.025 0.25 0.575
v 0.025 0.3 0.575
v 0.025 0.4 0.575
v 0.075 0.2 0.575
v 0.075 0.4 0.575
v -0.025 -0.35 0.525
v -0.025 -0.3 0.525
v -0.025 -0.1 0.525
v -0.025 0 0.525
v -0.025 0.05 0.525
v -0.025 0.1 0.525
v 0.025 -0.35 0.525
v 0.025 -0.3 0.525
v 0.025 -0.1 0.525
v 0.025 0 0.525
v 0.025 0.05 0.525
v 0.025 0.1 0.525
v 0.025 0.2 0.525
v 0.075 0.05 0.525
v 0.075 0.2 0.525
v -0.075 0.05 0.475
v -0.075 0.1 0.475
v -0.075 0.35 0.475
v -0.075 0.4 0.475
v -0.025 -0.25 0.475
v -0.025 -0.2 0.475
v -0.025 -0.15 0.475
v -0.025 -0.1 0.475
v -0.025 0.05 0.475
v -0.025 0.1 0.475
v -0.025 0.35 0.475
v -0.025 0.4 0.475
v -0.025 0.45 0.475
v 0.025 -0.25 0.475
v 0.025 -0.2 0.475
v 0.025 -0.15 0.475
v 0.025 -0.1 0.475
v 0.025 0.4 0.475
v 0.025 0.45 0.475
v -0.025 -0.3 0.425
v -0.025 -0.25 0.425
v 0.025 -0.3 0.425
v 0.025 -0.25 0.425
v -0.025 -0.4 0.375
v -0.025 -0.35 0.375
v 0.025 -0.4 0.375
v 0.025 -0.35 0.375
v -0.025 -0.45 0.325
v -0.025 -0.4 0.325
v 0.025 -0.45 0.325
v 0.025 -0.4 0.325
v -0.025 0.3 0.125
v -0.025 0.35 0.125
v 0.025 0.3 0.125
v 0.025 0.35 0.125
v -0.025 0.35 -0.025
v -0.025 0.4 -0.025
v -0.025 0.45 -0.025
v 0.025 0.35 -0.025
v 0.025 0.4 -0.025
v 0.025 0.45 -0.025
v -0.025 0.35 -0.525
v -0.025 0.4 -0.525
v -0.025 0.45 -0.525
v 0.025 0.35 -0.525
v 0.025 0.4 -0.525
v 0.025 0.45 -0.525
v -0.025 0.35 -0.625
v -0.025 0.4 -0.625
v 0.025 0.35 -0.625
v 0.025 0.4 -0.625
v -0.025 0.05 0.625
v -0.025 0.1 0.625
v -0.025 0.3 0.625
v -0.025 0.35 0.625
v 0.025 0.05 0.625
v 0.025 0.1 0.625
v 0.025 0.3 0.625
v 0.025 0.35 0.625
v -0.025 -0.15 0.575
v -0.025 -0.1 0.575
v 0.025 -0.15 0.575
v 0.025 -0.1 0.575
v -0.025 -0.3 0.525
v -0.025 -0.25 0.525
v -0.025 0.4 0.525
v -0.025 0.45 0.525
v 0.025 -0.3 0.525
v 0.025 -0.25 0.525
v 0.025 0.4 0.525
v 0.025 0.45 0.525
v -0.025 0.4 0.425
v -0.025 0.45 0.425
v 0.025 0.05 0.425
v 0.025 0.1 0.425
v 0.025 0.35 0.425
v 0.025 0.4 0.425
v 0.025 0.45 0.425
v 0.075 0.05 0.425
v 0.075 0.1 0.425
v 0.075 0.35 0.425
v 0.075 0.4 0.425
v -0.075 0.05 0.375
v -0.075 0.15 0.375
v -0.025 0.05 0.375
v -0.025 0.15 0.375
v 0.025 0.1 0.375
v 0.025 0.15 0.375
v 0.075 0.1 0.375
v 0.075 0.15 0.375
v -0.075 0.15 0.325
v -0.075 0.4 0.325
v -0.025 0 0.325
v -0.025 0.15 0.325
v -0.025 0.25 0.325
v -0.025 0.35 0.325
v 0.025 0 0.325
v 0.025 0.15 0.325
v 0.025 0.25 0.325
v 0.025 0.35 0.325
v 0.025 0.4 0.325
v 0.075 0.15 0.325
v 0.075 0.35 0.325
v -0.025 -0.1 0.275
v -0.025 0 0.275
v -0.025 0.3 0.275
v -0.025 0.35 0.275
v 0.025 -0.1 0.275
v 0.025 0 0.275
v 0.025 0.3 0.275
v 0.025 0.35 0.275
v -0.025 -0.2 0.225
v -0.025 -0.1 0.225
v 0.025 -0.2 0.225
v 0.025 -0.1 0.225
v -0.025 -0.25 0.175
v -0.025 -0.2 0.175
v 0.025 -0.25 0.175
v 0.025 -0.2 0.175
v -0.025 -0.3 0.125
v -0.025 -0.25 0.125
v 0.025 -0.3 0.125
v 0.025 -0.25 0.125
v -0.025 -0.35 0.075
v -0.025 -0.3 0.075
v -0.025 0.25 0.075
v -0.025 0.3 0.075
v 0.025 -0.35 0.075
v 0.025 -0.3 0.075
v 0.025 0.25 0.075
v 0.025 0.3 0.075
v -0.025 -0.4 0.025
v -0.025 -0.35 0.025
v 0.025 -0.4 0.025
v 0.025 -0.35 0.025
v -0.025 -0.45 -0.025
v -0.025 -0.4 -0.025
v 0.025 -0.45 -0.025
v 0.025 -0.4 -0.025
v -0.025 0.4 -0.075
v -0.025 0.45 -0.075
v 0.025 0.4 -0.075
v 0.025 0.45 -0.075
v -0.025 0.35 -0.125
v -0.025 0.4 -0.125
v 0.025 0.35 -0.125
v 0.025 0.4 -0.125
v -0.025 0.35 -0.575
v -0.025 0.4 -0.575
v -0.025 0.45 -0.575
v 0.025 0.35 -0.575
v 0.025 0.4 -0.575
v 0.025 0.45 -0.575
v -0.025 0.3 -0.675
v -0.025 0.4 -0.675
v 0.025 0.3 -0.675
v 0.025 0.4 -0.675
v -0.025 -0.45 0.325
v 0.025 -0.45 0.325
v -0.025 -0.45 0.025
v 0.025 -0.45 0.025
v -0.025 -0.45 -0.025
v 0.025 -0.45 -0.025
v -0.025 -0.4 0.375
v 0.025 -0.4 0.375
v -0.025 -0.4 0.325
v 0.025 -0.4 0.325
v -0.025 -0.35 0.525
v 0.025 -0.35 0.525
v -0.025 -0.35 0.475
v 0.025 -0.35 0.475
v -0.025 -0.35 0.425
v 0.025 -0.35 0.425
v -0.025 -0.35 0.375
v 0.025 -0.35 0.375
v -0.025 -0.3 0.575
v 0.025 -0.3 0.575
v -0.025 -0.3 0.525
v 0.025 -0.3 0.525
v -0.025 -0.25 0.475
v 0.025 -0.25 0.475
v -0.025 -0.25 0.425
v 0.025 -0.25 0.425
v -0.025 -0.2 0.575
v 0.025 -0.2 0.575
v -0.025 -0.2 0.525
v 0.025 -0.2 0.525
v -0.025 -0.2 0.475
v 0.025 -0.2 0.475
v -0.025 -0.15 0.625
v 0.025 -0.15 0.625
v -0.025 -0.15 0.575
v 0.025 -0.15 0.575
v -0.025 -0.1 0.525
v 0.025 -0.1 0.525
v -0.025 -0.1 0.475
v 0.025 -0.1 0.475
v -0.025 0 0.625
v 0.025 0 0.625
v -0.025 0 0.575
v 0.025 0 0.575
v -0.025 0 0.525
v 0.025 0 0.525
v -0.025 0.05 0.675
v 0.025 0.05 0.675
v -0.025 0.05 0.625
v 0.025 0.05 0.625
v 0.025 0.05 0.525
v 0.075 0.05 0.525
v -0.075 0.05 0.475
v -0.025 0.05 0.475
v -0.075 0.05 0.425
v -0.025 0.05 0.425
v 0.025 0.05 0.425
v 0.075 0.05 0.425
v -0.075 0.05 0.375
v -0.025 0.05 0.375
v -0.075 0.1 0.575
v 0.025 0.1 0.575
v -0.075 0.1 0.525
v -0.025 0.1 0.525
v 0.025 0.1 0.525
v -0.075 0.1 0.475
v -0.025 0.1 0.475
v 0.025 0.1 0.425
v 0.075 0.1 0.425
v 0.025 0.1 0.375
v 0.075 0.1 0.375
v -0.075 0.15 0.375
v -0.025 0.15 0.375
v 0.025 0.15 0.375
v 0.075 0.15 0.375
v -0.075 0.15 0.325
v -0.025 0.15 0.325
v 0.025 0.15 0.325
v 0.075 0.15 0.325
v 0.025 0.2 0.575
v 0.075 0.2 0.575
v 0.025 0.2 0.525
v 0.075 0.2 0.525
v -0.025 0.25 0.625
v 0.025 0.25 0.625
v -0.025 0.25 0.575
v 0.025 0.25 0.575
v -0.025 0.25 0.325
v 0.025 0.25 0.325
v -0.025 0.25 0.225
v 0.025 0.25 0.225
v -0.025 0.25 0.125
v 0.025 0.25 0.125
v -0.025 0.25 0.075
v 0.025 0.25 0.075
v -0.025 0.3 0.675
v 0.025 0.3 0.675
v -0.025 0.3 0.625
v 0.025 0.3 0.625
v -0.025 0.3 0.075
v 0.025 0.3 0.075
v -0.025 0.3 0.025
v 0.025 0.3 0.025
v -0.025 0.3 -0.225
v 0.025 0.3 -0.225
v -0.025 0.3 -0.425
v 0.025 0.3 -0.425
v -0.025 0.3 -0.475
v 0.025 0.3 -0.475
v -0.025 0.3 -0.525
v 0.025 0.3 -0.525
v -0.025 0.3 -0.625
v 0.025 0.3 -0.625
v -0.025 0.3 -0.675
v 0.025 0.3 -0.675
v -0.025 0.4 0.625
v 0.025 0.4 0.625
v -0.025 0.4 0.575
v 0.025 0.4 0.575
v -0.025 -0.4 0.025
v 0.025 -0.4 0.025
v -0.025 -0.4 -0.025
v 0.025 -0.4 -0.025
v -0.025 -0.35 0.075
v 0.025 -0.35 0.075
v -0.025 -0.35 0.025
v 0.025 -0.35 0.025
v -0.025 -0.3 0.525
v 0.025 -0.3 0.525
v -0.025 -0.3 0.475
v 0.025 -0.3 0.475
v -0.025 -0.3 0.425
v 0.025 -0.3 0.425
v -0.025 -0.3 0.125
v 0.025 -0.3 0.125
v -0.025 -0.3 0.075
v 0.025 -0.3 0.075
v -0.025 -0.25 0.575
v 0.025 -0.25 0.575
v -0.025 -0.25 0.525
v 0.025 -0.25 0.525
v -0.025 -0.25 0.175
v 0.025 -0.25 0.175
v -0.025 -0.25 0.125
v 0.025 -0.25 0.125
v -0.025 -0.2 0.225
v 0.025 -0.2 0.225
v -0.025 -0.2 0.175
v 0.025 -0.2 0.175
v -0.025 -0.15 0.575
v 0.025 -0.15 0.575
v -0.025 -0.15 0.525
v 0.025 -0.15 0.525
v -0.025 -0.15 0.475
v 0.025 -0.15 0.475
v -0.025 -0.1 0.625
v 0.025 -0.1 0.625
v -0.025 -0.1 0.575
v 0.025 -0.1 0.575
v -0.025 -0.1 0.275
v 0.025 -0.1 0.275
v -0.025 -0.1 0.225
v 0.025 -0.1 0.225
v -0.025 0 0.325
v 0.025 0 0.325
v -0.025 0 0.275
v 0.025 0 0.275
v -0.025 0.05 0.625
v 0.025 0.05 0.625
v -0.025 0.05 0.575
v 0.025 0.05 0.575
v -0.025 0.05 0.525
v 0.025 0.05 0.525
v -0.025 0.1 0.675
v 0.025 0.1 0.675
v -0.025 0.1 0.625
v 0.025 0.1 0.625
v -0.025 0.3 0.625
v 0.025 0.3 0.625
v -0.025 0.3 0.575
v 0.025 0.3 0.575
v -0.025 0.3 0.275
v 0.025 0.3 0.275
v -0.025 0.3 0.225
v 0.025 0.3 0.225
v -0.025 0.3 0.125
v 0.025 0.3 0.125
v -0.025 0.35 0.675
v 0.025 0.35 0.675
v -0.025 0.35 0.625
v 0.025 0.35 0.625
v -0.075 0.35 0.575
v -0.025 0.35 0.575
v -0.075 0.35 0.475
v -0.025 0.35 0.475
v 0.025 0.35 0.425
v 0.075 0.35 0.425
v 0.025 0.35 0.375
v 0.075 0.35 0.375
v -0.025 0.35 0.325
v 0.025 0.35 0.325
v 0.075 0.35 0.325
v -0.025 0.35 0.275
v 0.025 0.35 0.275
v -0.025 0.35 0.125
v 0.025 0.35 0.125
v -0.025 0.35 0.075
v 0.025 0.35 0.075
v -0.025 0.35 0.025
v 0.025 0.35 0.025
v -0.025 0.35 -0.025
v 0.025 0.35 -0.025
v -0.025 0.35 -0.125
v 0.025 0.35 -0.125
v -0.025 0.35 -0.225
v 0.025 0.35 -0.225
v -0.025 0.35 -0.425
v 0.025 0.35 -0.425
v -0.025 0.35 -0.475
v 0.025 0.35 -0.475
v -0.025 0.35 -0.525
v 0.025 0.35 -0.525
v -0.025 0.35 -0.575
v 0.025 0.35 -0.575
v -0.025 0.35 -0.625
v 0.025 0.35 -0.625
v 0.025 0.4 0.575
v 0.075 0.4 0.575
v -0.025 0.4 0.525
v 0.025 0.4 0.525
v -0.075 0.4 0.475
v -0.025 0.4 0.475
v 0.025 0.4 0.475
v -0.025 0.4 0.425
v 0.025 0.4 0.425
v 0.075 0.4 0.425
v -0.075 0.4 0.375
v 0.025 0.4 0.375
v -0.075 0.4 0.325
v 0.025 0.4 0.325
v -0.025 0.4 -0.075
v 0.025 0.4 -0.075
v -0.025 0.4 -0.125
v 0.025 0.4 -0.125
v -0.025 0.4 -0.625
v 0.025 0.4 -0.625
v -0.025 0.4 -0.675
v 0.025 0.4 -0.675
v -0.025 0.45 0.625
v 0.025 0.45 0.625
v -0.025 0.45 0.575
v 0.025 0.45 0.575
v -0.025 0.45 0.525
v 0.025 0.45 0.525
v -0.025 0.45 0.475
v 0.025 0.45 0.475
v -0.025 0.45 0.425
v 0.025 0.45 0.425
v -0.025 0.45 -0.025
v 0.025 0.45 -0.025
v -0.025 0.45 -0.075
v 0.025 0.45 -0.075
v -0.025 0.45 -0.525
v 0.025 0.45 -0.525
v -0.025 0.45 -0.575
v 0.025 0.45 -0.575

# faces
f 6/7/1 2/7/1 1/7/1
f 7/4/1 3/4/1 2/4/1
f 9/7/1 6/7/1 5/7/1
f 9/7/1 2/7/1 6/7/1
f 9/4/1 7/4/1 2/4/1
f 10/3/1 8/3/1 7/3/1
f 10/4/1 7/4/1 9/4/1
f 11/8/1 5/8/1 4/8/1
f 11/7/1 9/7/1 5/7/1
f 12/8/1 10/8/1 9/8/1
f 12/7/1 9/7/1 11/7/1
f 13/8/1 11/8/1 4/8/1
f 13/8/1 12/8/1 11/8/1
f 14/8/1 12/8/1 13/8/1
f 15/8/1 12/8/1 14/8/1
f 16/3/1 8/3/1 10/3/1
f 16/8/1 12/8/1 15/8/1
f 16/8/1 10/8/1 12/8/1
f 17/3/1 8/3/1 16/3/1
f 22/8/1 19/8/1 18/8/1
f 23/8/1 19/8/1 22/8/1
f 24/8/1 19/8/1 23/8/1
f 25/3/1 20/3/1 19/3/1
f 25/8/1 19/8/1 24/8/1
f 26/3/1 20/3/1 25/3/1
f 30/8/1 22/8/1 21/8/1
f 31/7/1 23/7/1 22/7/1
f 31/8/1 22/8/1 30/8/1
f 32/7/1 23/7/1 31/7/1
f 33/4/1 24/4/1 23/4/1
f 33/7/1 23/7/1 32/7/1
f 34/3/1 25/3/1 24/3/1
f 34/4/1 24/4/1 33/4/1
f 35/3/1 25/3/1 34/3/1
f 37/3/1 28/3/1 27/3/1
f 38/13/1 29/13/1 28/13/1
f 38/3/1 28/3/1 37/3/1
f 39/8/1 30/8/1 29/8/1
f 39/13/1 29/13/1 38/13/1
f 40/7/1 32/7/1 31/7/1
f 40/7/1 31/7/1 30/7/1
f 41/4/1 33/4/1 32/4/1
f 41/7/1 32/7/1 40/7/1
f 42/4/1 33/4/1 41/4/1
f 43/3/1 34/3/1 33/3/1
f 43/4/1 33/4/1 42/4/1
f 44/3/1 34/3/1 43/3/1
f 45/3/1 37/3/1 36/3/1
f 46/3/1 37/3/1 45/3/1
f 48/8/1 30/8/1 39/8/1
f 49/7/1 40/7/1 30/7/1
f 49/8/1 30/8/1 48/8/1
f 50/7/1 40/7/1 49/7/1
f 51/4/1 41/4/1 40/4/1
f 51/7/1 40/7/1 50/7/1
f 51/4/1 42/4/1 41/4/1
f 52/4/1 42/4/1 51/4/1
f 53/3/1 43/3/1 42/3/1
f 53/4/1 42/4/1 52/4/1
f 54/3/1 43/3/1 53/3/1
f 57/8/1 48/8/1 47/8/1
f 58/4/1 52/4/1 51/4/1
f 58/4/1 51/4/1 50/4/1
f 59/3/1 53/3/1 52/3/1
f 59/4/1 52/4/1 58/4/1
f 60/3/1 53/3/1 59/3/1
f 62/3/1 56/3/1 55/3/1
f 63/13/1 57/13/1 56/13/1
f 63/3/1 56/3/1 62/3/1
f 64/8/1 48/8/1 57/8/1
f 64/13/1 57/13/1 63/13/1
f 65/7/1 50/7/1 49/7/1
f 65/7/1 49/7/1 48/7/1
f 66/4/1 58/4/1 50/4/1
f 66/7/1 50/7/1 65/7/1
f 67/3/1 62/3/1 61/3/1
f 68/3/1 62/3/1 67/3/1
f 70/8/1 48/8/1 64/8/1
f 71/7/1 65/7/1 48/7/1
f 71/8/1 48/8/1 70/8/1
f 72/4/1 58/4/1 66/4/1
f 72/4/1 66/4/1 65/4/1
f 73/3/1 59/3/1 58/3/1
f 73/4/1 58/4/1 72/4/1
f 74/3/1 59/3/1 73/3/1
f 77/8/1 70/8/1 69/8/1
f 78/7/1 71/7/1 70/7/1
f 78/8/1 70/8/1 77/8/1
f 79/7/1 65/7/1 71/7/1
f 79/7/1 71/7/1 78/7/1
f 80/4/1 72/4/1 65/4/1
f 80/7/1 65/7/1 79/7/1
f 81/3/1 73/3/1 72/3/1
f 81/4/1 72/4/1 80/4/1
f 82/3/1 73/3/1 81/3/1
f 84/3/1 76/3/1 75/3/1
f 85/13/1 77/13/1 76/13/1
f 85/3/1 76/3/1 84/3/1
f 86/8/1 78/8/1 77/8/1
f 86/13/1 77/13/1 85/13/1
f 86/8/1 79/8/1 78/8/1
f 87/8/1 79/8/1 86/8/1
f 88/4/1 80/4/1 79/4/1
f 88/8/1 79/8/1 87/8/1
f 89/3/1 81/3/1 80/3/1
f 89/4/1 80/4/1 88/4/1
f 90/3/1 84/3/1 83/3/1
f 91/3/1 84/3/1 90/3/1
f 92/7/1 87/7/1 86/7/1
f 93/7/1 87/7/1 92/7/1
f 94/3/1 81/3/1 89/3/1
f 95/3/1 81/3/1 94/3/1
f 103/13/1 97/13/1 96/13/1
f 104/13/1 97/13/1 103/13/1
f 105/12/1 99/12/1 98/12/1
f 106/3/1 100/3/1 99/3/1
f 106/12/1 99/12/1 105/12/1
f 107/12/1 101/12/1 100/12/1
f 107/3/1 100/3/1 106/3/1
f 108/12/1 101/12/1 107/12/1
f 116/3/1 103/3/1 102/3/1
f 117/3/1 103/3/1 116/3/1
f 120/12/1 105/12/1 98/12/1
f 121/12/1 105/12/1 120/12/1
f 122/3/1 108/3/1 107/3/1
f 123/12/1 109/12/1 108/12/1
f 123/3/1 108/3/1 122/3/1
f 124/11/1 110/11/1 109/11/1
f 124/12/1 109/12/1 123/12/1
f 125/11/1 110/11/1 124/11/1
f 126/11/1 110/11/1 125/11/1
f 127/11/1 110/11/1 126/11/1
f 128/10/1 111/10/1 110/10/1
f 128/11/1 110/11/1 127/11/1
f 129/6/1 112/6/1 111/6/1
f 129/10/1 111/10/1 128/10/1
f 130/1/1 113/1/1 112/1/1
f 130/6/1 112/6/1 129/6/1
f 131/9/1 114/9/1 113/9/1
f 131/1/1 113/1/1 130/1/1
f 132/9/1 114/9/1 131/9/1
f 133/6/1 115/6/1 114/6/1
f 133/9/1 114/9/1 132/9/1
f 135/8/1 119/8/1 118/8/1
f 136/8/1 119/8/1 135/8/1
f 137/8/1 119/8/1 136/8/1
f 139/9/1 126/9/1 125/9/1
f 140/6/1 127/6/1 126/6/1
f 140/9/1 126/9/1 139/9/1
f 141/6/1 127/6/1 140/6/1
f 142/9/1 132/9/1 131/9/1
f 143/9/1 132/9/1 142/9/1
f 144/6/1 115/6/1 133/6/1
f 145/6/1 115/6/1 144/6/1
f 146/2/1 135/2/1 134/2/1
f 147/5/1 136/5/1 135/5/1
f 147/2/1 135/2/1 146/2/1
f 148/5/1 136/5/1 147/5/1
f 149/3/1 138/3/1 137/3/1
f 150/3/1 138/3/1 149/3/1
f 151/6/1 140/6/1 139/6/1
f 152/6/1 140/6/1 151/6/1
f 153/6/1 143/6/1 142/6/1
f 154/6/1 143/6/1 153/6/1
f 155/8/2 156/8/2 159/8/2
f 159/8/2 156/8/2 160/8/2
f 160/8/2 156/8/2 161/8/2
f 156/3/2 157/3/2 162/3/2
f 161/8/2 156/8/2 162/8/2
f 162/3/2 157/3/2 163/3/2
f 158/8/2 159/8/2 167/8/2
f 159/7/2 160/7/2 168/7/2
f 167/8/2 159/8/2 168/8/2
f 168/7/2 160/7/2 169/7/2
f 160/4/2 161/4/2 170/4/2
f 169/7/2 160/7/2 170/7/2
f 161/3/2 162/3/2 171/3/2
f 170/4/2 161/4/2 171/4/2
f 171/3/2 162/3/2 172/3/2
f 164/3/2 165/3/2 174/3/2
f 165/13/2 166/13/2 175/13/2
f 174/3/2 165/3/2 175/3/2
f 166/8/2 167/8/2 176/8/2
f 175/13/2 166/13/2 176/13/2
f 168/7/2 169/7/2 177/7/2
f 167/7/2 168/7/2 177/7/2
f 169/4/2 170/4/2 178/4/2
f 177/7/2 169/7/2 178/7/2
f 178/4/2 170/4/2 179/4/2
f 170/3/2 171/3/2 180/3/2
f 179/4/2 170/4/2 180/4/2
f 180/3/2 171/3/2 181/3/2
f 173/3/2 174/3/2 182/3/2
f 182/3/2 174/3/2 183/3/2
f 176/8/2 167/8/2 185/8/2
f 167/7/2 177/7/2 186/7/2
f 185/8/2 167/8/2 186/8/2
f 186/7/2 177/7/2 187/7/2
f 177/4/2 178/4/2 188/4/2
f 187/7/2 177/7/2 188/7/2
f 178/4/2 179/4/2 188/4/2
f 188/4/2 179/4/2 189/4/2
f 179/3/2 180/3/2 190/3/2
f 189/4/2 179/4/2 190/4/2
f 190/3/2 180/3/2 191/3/2
f 184/8/2 185/8/2 194/8/2
f 188/4/2 189/4/2 195/4/2
f 187/4/2 188/4/2 195/4/2
f 189/3/2 190/3/2 196/3/2
f 195/4/2 189/4/2 196/4/2
f 196/3/2 190/3/2 197/3/2
f 192/3/2 193/3/2 199/3/2
f 193/13/2 194/13/2 200/13/2
f 199/3/2 193/3/2 200/3/2
f 194/8/2 185/8/2 201/8/2
f 200/13/2 194/13/2 201/13/2
f 186/7/2 187/7/2 202/7/2
f 185/7/2 186/7/2 202/7/2
f 187/4/2 195/4/2 203/4/2
f 202/7/2 187/7/2 203/7/2
f 198/3/2 199/3/2 204/3/2
f 204/3/2 199/3/2 205/3/2
f 201/8/2 185/8/2 207/8/2
f 185/7/2 202/7/2 208/7/2
f 207/8/2 185/8/2 208/8/2
f 203/4/2 195/4/2 209/4/2
f 202/4/2 203/4/2 209/4/2
f 195/3/2 196/3/2 210/3/2
f 209/4/2 195/4/2 210/4/2
f 210/3/2 196/3/2 211/3/2
f 206/8/2 207/8/2 214/8/2
f 207/7/2 208/7/2 215/7/2
f 214/8/2 207/8/2 215/8/2
f 208/7/2 202/7/2 216/7/2
f 215/7/2 208/7/2 216/7/2
f 202/4/2 209/4/2 217/4/2
f 216/7/2 202/7/2 217/7/2
f 209/3/2 210/3/2 218/3/2
f 217/4/2 209/4/2 218/4/2
f 218/3/2 210/3/2 219/3/2
f 212/3/2 213/3/2 221/3/2
f 213/13/2 214/13/2 222/13/2
f 221/3/2 213/3/2 222/3/2
f 214/8/2 215/8/2 223/8/2
f 222/13/2 214/13/2 223/13/2
f 215/8/2 216/8/2 223/8/2
f 216/4/2 217/4/2 224/4/2
f 223/8/2 216/8/2 224/8/2
f 220/3/2 221/3/2 225/3/2
f 225/3/2 221/3/2 226/3/2
f 224/4/2 217/4/2 229/4/2
f 217/3/2 218/3/2 230/3/2
f 229/4/2 217/4/2 230/4/2
f 230/3/2 218/3/2 231/3/2
f 231/3/2 218/3/2 232/3/2
f 227/8/2 228/8/2 233/8/2
f 233/8/2 228/8/2 234/8/2
f 235/13/2 236/13/2 242/13/2
f 242/13/2 236/13/2 243/13/2
f 237/12/2 238/12/2 244/12/2
f 238/3/2 239/3/2 245/3/2
f 244/12/2 238/12/2 245/12/2
f 239/12/2 240/12/2 246/12/2
f 245/3/2 239/3/2 246/3/2
f 246/12/2 240/12/2 247/12/2
f 241/3/2 242/3/2 255/3/2
f 255/3/2 242/3/2 256/3/2
f 237/12/2 244/12/2 259/12/2
f 259/12/2 244/12/2 260/12/2
f 246/3/2 247/3/2 261/3/2
f 247/12/2 248/12/2 262/12/2
f 261/3/2 247/3/2 262/3/2
f 248/11/2 249/11/2 263/11/2
f 262/12/2 248/12/2 263/12/2
f 263/11/2 249/11/2 264/11/2
f 264/11/2 249/11/2 265/11/2
f 265/11/2 249/11/2 266/11/2
f 249/10/2 250/10/2 267/10/2
f 266/11/2 249/11/2 267/11/2
f 250/6/2 251/6/2 268/6/2
f 267/10/2 250/10/2 268/10/2
f 251/1/2 252/1/2 269/1/2
f 268/6/2 251/6/2 269/6/2
f 252/9/2 253/9/2 270/9/2
f 269/1/2 252/1/2 270/1/2
f 270/9/2 253/9/2 271/9/2
f 253/6/2 254/6/2 272/6/2
f 271/9/2 253/9/2 272/9/2
f 257/8/2 258/8/2 277/8/2
f 258/3/2 259/3/2 278/3/2
f 277/8/2 258/8/2 278/8/2
f 278/3/2 259/3/2 279/3/2
f 264/9/2 265/9/2 280/9/2
f 265/6/2 266/6/2 281/6/2
f 280/9/2 265/9/2 281/9/2
f 281/6/2 266/6/2 282/6/2
f 270/9/2 271/9/2 283/9/2
f 283/9/2 271/9/2 284/9/2
f 272/6/2 254/6/2 285/6/2
f 285/6/2 254/6/2 286/6/2
f 273/2/2 274/2/2 287/2/2
f 274/5/2 275/5/2 288/5/2
f 287/2/2 274/2/2 288/2/2
f 288/5/2 275/5/2 289/5/2
f 276/3/2 277/3/2 290/3/2
f 290/3/2 277/3/2 291/3/2
f 280/6/2 281/6/2 292/6/2
f 292/6/2 281/6/2 293/6/2
f 283/6/2 284/6/2 294/6/2
f 294/6/2 284/6/2 295/6/2
f 296/7/2 297/7/2 298/7/2
f 298/4/2 299/4/2 300/4/2
f 296/7/2 298/7/2 303/7/2
f 303/7/2 298/7/2 304/7/2
f 302/8/2 303/8/2 304/8/2
f 304/7/2 298/7/2 305/7/2
f 298/4/2 300/4/2 306/4/2
f 305/7/2 298/7/2 306/7/2
f 300/3/2 301/3/2 307/3/2
f 306/4/2 300/4/2 307/4/2
f 305/7/2 306/7/2 308/7/2
f 304/8/2 305/8/2 308/8/2
f 306/7/2 307/7/2 308/7/2
f 308/7/2 307/7/2 309/7/2
f 307/3/2 301/3/2 310/3/2
f 309/7/2 307/7/2 310/7/2
f 310/3/2 301/3/2 311/3/2
f 308/8/2 309/8/2 312/8/2
f 302/8/2 304/8/2 312/8/2
f 304/8/2 308/8/2 312/8/2
f 312/8/2 309/8/2 313/8/2
f 318/3/3 315/3/3 314/3/3
f 319/3/3 315/3/3 318/3/3
f 320/3/3 317/3/3 316/3/3
f 321/3/3 317/3/3 320/3/3
f 330/3/3 323/3/3 322/3/3
f 331/3/3 323/3/3 330/3/3
f 332/3/3 325/3/3 324/3/3
f 333/3/3 325/3/3 332/3/3
f 334/13/3 327/13/3 326/13/3
f 335/13/3 327/13/3 334/13/3
f 336/2/3 329/2/3 328/2/3
f 337/2/3 329/2/3 336/2/3
f 344/8/3 339/8/3 338/8/3
f 345/8/3 339/8/3 344/8/3
f 346/8/3 339/8/3 345/8/3
f 347/8/3 339/8/3 346/8/3
f 349/3/3 341/3/3 340/3/3
f 350/3/3 341/3/3 349/3/3
f 351/3/3 343/3/3 342/3/3
f 352/3/3 343/3/3 351/3/3
f 353/8/3 344/8/3 338/8/3
f 354/7/3 345/7/3 344/7/3
f 354/8/3 344/8/3 353/8/3
f 355/7/3 345/7/3 354/7/3
f 356/8/3 348/8/3 347/8/3
f 356/8/3 347/8/3 346/8/3
f 357/8/3 348/8/3 356/8/3
f 358/8/3 355/8/3 354/8/3
f 358/8/3 357/8/3 356/8/3
f 358/8/3 356/8/3 355/8/3
f 359/8/3 357/8/3 358/8/3
f 366/3/3 361/3/3 360/3/3
f 367/3/3 361/3/3 366/3/3
f 368/8/3 363/8/3 362/8/3
f 369/8/3 363/8/3 368/8/3
f 370/7/3 365/7/3 364/7/3
f 371/7/3 365/7/3 370/7/3
f 373/7/3 372/7/3 371/7/3
f 373/7/3 371/7/3 370/7/3
f 374/7/3 372/7/3 373/7/3
f 383/7/3 376/7/3 375/7/3
f 384/7/3 376/7/3 383/7/3
f 385/8/3 378/8/3 377/8/3
f 386/8/3 378/8/3 385/8/3
f 388/8/3 380/8/3 379/8/3
f 389/8/3 380/8/3 388/8/3
f 390/8/3 382/8/3 381/8/3
f 391/8/3 382/8/3 390/8/3
f 392/3/3 387/3/3 386/3/3
f 393/3/3 387/3/3 392/3/3
f 396/8/3 395/8/3 394/8/3
f 397/8/3 395/8/3 396/8/3
f 400/8/3 399/8/3 398/8/3
f 401/8/3 399/8/3 400/8/3
f 404/8/3 403/8/3 402/8/3
f 405/8/3 403/8/3 404/8/3
f 408/3/3 407/3/3 406/3/3
f 409/3/3 407/3/3 408/3/3
f 413/9/3 411/9/3 410/9/3
f 414/6/3 412/6/3 411/6/3
f 414/9/3 411/9/3 413/9/3
f 415/6/3 412/6/3 414/6/3
f 419/9/3 417/9/3 416/9/3
f 420/6/3 418/6/3 417/6/3
f 420/9/3 417/9/3 419/9/3
f 421/6/3 418/6/3 420/6/3
f 424/6/3 423/6/3 422/6/3
f 425/6/3 423/6/3 424/6/3
f 426/3/4 427/3/4 430/3/4
f 430/3/4 427/3/4 431/3/4
f 428/3/4 429/3/4 432/3/4
f 432/3/4 429/3/4 433/3/4
f 434/3/4 435/3/4 436/3/4
f 436/3/4 435/3/4 437/3/4
f 438/3/4 439/3/4 442/3/4
f 442/3/4 439/3/4 443/3/4
f 440/5/4 441/5/4 444/5/4
f 444/5/4 441/5/4 445/5/4
f 446/3/4 447/3/4 451/3/4
f 451/3/4 447/3/4 452/3/4
f 448/7/4 449/7/4 453/7/4
f 453/7/4 449/7/4 454/7/4
f 450/8/4 451/8/4 455/8/4
f 455/8/4 451/8/4 456/8/4
f 457/4/4 458/4/4 459/4/4
f 459/4/4 458/4/4 460/4/4
f 461/4/4 462/4/4 463/4/4
f 463/4/4 462/4/4 464/4/4
f 465/3/4 466/3/4 468/3/4
f 468/3/4 466/3/4 469/3/4
f 469/3/4 466/3/4 470/3/4
f 467/3/4 468/3/4 471/3/4
f 468/3/4 469/3/4 471/3/4
f 471/3/4 469/3/4 472/3/4
f 472/3/4 469/3/4 473/3/4
f 470/3/4 466/3/4 474/3/4
f 474/3/4 466/3/4 475/3/4
f 472/3/4 473/3/4 476/3/4
f 473/3/4 474/3/4 476/3/4
f 476/3/4 474/3/4 477/3/4
f 478/3/4 479/3/4 482/3/4
f 482/3/4 479/3/4 483/3/4
f 480/12/4 481/12/4 484/12/4
f 484/12/4 481/12/4 485/12/4
f 486/3/4 487/3/4 488/3/4
f 488/3/4 487/3/4 489/3/4
f 490/3/4 491/3/4 492/3/4
f 492/3/4 491/3/4 493/3/4
f 494/3/4 495/3/4 496/3/4
f 496/3/4 495/3/4 497/3/4
f 498/3/4 499/3/4 502/3/4
f 502/3/4 499/3/4 503/3/4
f 500/12/4 501/12/4 504/12/4
f 504/12/4 501/12/4 505/12/4
f 506/3/4 507/3/4 508/3/4
f 508/3/4 507/3/4 509/3/4
f 510/3/4 511/3/4 512/3/4
f 512/3/4 511/3/4 513/3/4
f 514/6/4 515/6/4 516/6/4
f 516/6/4 515/6/4 517/6/4
f 518/6/4 519/6/4 520/6/4
f 520/6/4 519/6/4 521/6/4
f 522/9/4 523/9/4 525/9/4
f 523/6/4 524/6/4 526/6/4
f 525/9/4 523/9/4 526/9/4
f 526/6/4 524/6/4 527/6/4
f 528/6/4 529/6/4 530/6/4
f 530/6/4 529/6/4 531/6/4
f 534/8/5 533/8/5 532/8/5
f 535/8/5 533/8/5 534/8/5
f 536/3/5 535/3/5 534/3/5
f 537/3/5 535/3/5 536/3/5
f 540/8/5 539/8/5 538/8/5
f 541/8/5 539/8/5 540/8/5
f 544/3/5 543/3/5 542/3/5
f 545/3/5 543/3/5 544/3/5
f 546/13/5 545/13/5 544/13/5
f 547/13/5 545/13/5 546/13/5
f 548/8/5 547/8/5 546/8/5
f 549/8/5 547/8/5 548/8/5
f 552/3/5 551/3/5 550/3/5
f 553/3/5 551/3/5 552/3/5
f 556/8/5 555/8/5 554/8/5
f 557/8/5 555/8/5 556/8/5
f 560/3/5 559/3/5 558/3/5
f 561/3/5 559/3/5 560/3/5
f 562/13/5 561/13/5 560/13/5
f 563/13/5 561/13/5 562/13/5
f 566/3/5 565/3/5 564/3/5
f 567/3/5 565/3/5 566/3/5
f 570/8/5 569/8/5 568/8/5
f 571/8/5 569/8/5 570/8/5
f 574/3/5 573/3/5 572/3/5
f 575/3/5 573/3/5 574/3/5
f 576/13/5 575/13/5 574/13/5
f 577/13/5 575/13/5 576/13/5
f 580/3/5 579/3/5 578/3/5
f 581/3/5 579/3/5 580/3/5
f 586/7/5 585/7/5 584/7/5
f 587/7/5 585/7/5 586/7/5
f 588/7/5 583/7/5 582/7/5
f 589/7/5 583/7/5 588/7/5
f 590/4/5 587/4/5 586/4/5
f 591/4/5 587/4/5 590/4/5
f 594/8/5 593/8/5 592/8/5
f 595/8/5 593/8/5 594/8/5
f 596/8/5 593/8/5 595/8/5
f 597/7/5 595/7/5 594/7/5
f 598/7/5 595/7/5 597/7/5
f 601/4/5 600/4/5 599/4/5
f 602/4/5 600/4/5 601/4/5
f 607/3/5 604/3/5 603/3/5
f 608/3/5 604/3/5 607/3/5
f 609/3/5 606/3/5 605/3/5
f 610/3/5 606/3/5 609/3/5
f 613/8/5 612/8/5 611/8/5
f 614/8/5 612/8/5 613/8/5
f 617/13/5 616/13/5 615/13/5
f 618/13/5 616/13/5 617/13/5
f 621/12/5 620/12/5 619/12/5
f 622/12/5 620/12/5 621/12/5
f 623/3/5 622/3/5 621/3/5
f 624/3/5 622/3/5 623/3/5
f 625/12/5 624/12/5 623/12/5
f 626/12/5 624/12/5 625/12/5
f 629/3/5 628/3/5 627/3/5
f 630/3/5 628/3/5 629/3/5
f 633/12/5 632/12/5 631/12/5
f 634/12/5 632/12/5 633/12/5
f 635/11/5 634/11/5 633/11/5
f 636/11/5 634/11/5 635/11/5
f 637/10/5 636/10/5 635/10/5
f 638/10/5 636/10/5 637/10/5
f 639/6/5 638/6/5 637/6/5
f 640/6/5 638/6/5 639/6/5
f 641/1/5 640/1/5 639/1/5
f 642/1/5 640/1/5 641/1/5
f 643/9/5 642/9/5 641/9/5
f 644/9/5 642/9/5 643/9/5
f 645/6/5 644/6/5 643/6/5
f 646/6/5 644/6/5 645/6/5
f 649/2/5 648/2/5 647/2/5
f 650/2/5 648/2/5 649/2/5
f 651/3/6 652/3/6 653/3/6
f 653/3/6 652/3/6 654/3/6
f 655/3/6 656/3/6 657/3/6
f 657/3/6 656/3/6 658/3/6
f 659/3/6 660/3/6 661/3/6
f 661/3/6 660/3/6 662/3/6
f 661/13/6 662/13/6 663/13/6
f 663/13/6 662/13/6 664/13/6
f 665/3/6 666/3/6 667/3/6
f 667/3/6 666/3/6 668/3/6
f 669/3/6 670/3/6 671/3/6
f 671/3/6 670/3/6 672/3/6
f 673/3/6 674/3/6 675/3/6
f 675/3/6 674/3/6 676/3/6
f 677/3/6 678/3/6 679/3/6
f 679/3/6 678/3/6 680/3/6
f 681/3/6 682/3/6 683/3/6
f 683/3/6 682/3/6 684/3/6
f 683/13/6 684/13/6 685/13/6
f 685/13/6 684/13/6 686/13/6
f 687/3/6 688/3/6 689/3/6
f 689/3/6 688/3/6 690/3/6
f 691/3/6 692/3/6 693/3/6
f 693/3/6 692/3/6 694/3/6
f 695/3/6 696/3/6 697/3/6
f 697/3/6 696/3/6 698/3/6
f 699/3/6 700/3/6 701/3/6
f 701/3/6 700/3/6 702/3/6
f 701/13/6 702/13/6 703/13/6
f 703/13/6 702/13/6 704/13/6
f 705/3/6 706/3/6 707/3/6
f 707/3/6 706/3/6 708/3/6
f 709/13/6 710/13/6 711/13/6
f 711/13/6 710/13/6 712/13/6
f 713/12/6 714/12/6 715/12/6
f 715/12/6 714/12/6 716/12/6
f 715/3/6 716/3/6 717/3/6
f 717/3/6 716/3/6 718/3/6
f 719/3/6 720/3/6 721/3/6
f 721/3/6 720/3/6 722/3/6
f 723/8/6 724/8/6 725/8/6
f 725/8/6 724/8/6 726/8/6
f 727/7/6 728/7/6 729/7/6
f 729/7/6 728/7/6 730/7/6
f 729/3/6 730/3/6 732/3/6
f 732/3/6 730/3/6 733/3/6
f 731/12/6 732/12/6 734/12/6
f 734/12/6 732/12/6 735/12/6
f 736/3/6 737/3/6 738/3/6
f 738/3/6 737/3/6 739/3/6
f 738/12/6 739/12/6 740/12/6
f 740/12/6 739/12/6 741/12/6
f 740/11/6 741/11/6 742/11/6
f 742/11/6 741/11/6 743/11/6
f 744/11/6 745/11/6 746/11/6
f 746/11/6 745/11/6 747/11/6
f 746/10/6 747/10/6 748/10/6
f 748/10/6 747/10/6 749/10/6
f 748/6/6 749/6/6 750/6/6
f 750/6/6 749/6/6 751/6/6
f 750/1/6 751/1/6 752/1/6
f 752/1/6 751/1/6 753/1/6
f 754/9/6 755/9/6 756/9/6
f 756/9/6 755/9/6 757/9/6
f 758/8/6 759/8/6 761/8/6
f 760/8/6 761/8/6 763/8/6
f 761/8/6 759/8/6 764/8/6
f 763/8/6 761/8/6 764/8/6
f 762/8/6 763/8/6 765/8/6
f 764/8/6 759/8/6 766/8/6
f 766/8/6 759/8/6 767/8/6
f 762/8/6 765/8/6 768/8/6
f 765/8/6 766/8/6 768/8/6
f 768/8/6 766/8/6 769/8/6
f 768/3/6 769/3/6 770/3/6
f 770/3/6 769/3/6 771/3/6
f 772/6/6 773/6/6 774/6/6
f 774/6/6 773/6/6 775/6/6
f 776/6/6 777/6/6 778/6/6
f 778/6/6 777/6/6 779/6/6
f 780/2/6 781/2/6 782/2/6
f 782/2/6 781/2/6 783/2/6
f 782/5/6 783/5/6 784/5/6
f 784/5/6 783/5/6 785/5/6
f 786/3/6 787/3/6 788/3/6
f 788/3/6 787/3/6 789/3/6
f 790/6/6 791/6/6 792/6/6
f 792/6/6 791/6/6 793/6/6
f 794/6/6 795/6/6 796/6/6
f 796/6/6 795/6/6 797/6/6
